<svg width="327" height="472" viewBox="0 0 327 472" fill="none" xmlns="http://www.w3.org/2000/svg">
<path d="M325.82 183.15L326.59 183.16C325.24 242.15 289.09 281.51 266.34 310.89C250.73 331.04 225.78 361.88 208.27 389.06C207.14 390.81 206.04 392.55 204.98 394.26C203.07 397.35 201.27 400.39 199.62 403.33C195.65 410.38 192.5 416.95 190.51 422.73C180.09 453.06 178.19 467.28 163.97 471.07C149.76 474.86 145.97 442.64 133.64 414.2C121.32 385.77 84.3601 339.33 44.55 290.99C4.74005 242.65 0.450195 181.01 0.450195 181.01H0.930176C0.310176 175.26 0 169.42 0 163.5C0 73.2 73.2 0 163.5 0C237.96 0 300.8 49.78 320.54 117.88C321.1 119.78 321.62 121.69 322.1 123.62C322.59 125.56 323.04 127.51 323.45 129.47C325.78 140.44 327 151.83 327 163.5C327 170.16 326.6 176.71 325.82 183.15Z" fill="#FFCC00"/>
</svg>
