<svg width="328" height="472" viewBox="0 0 328 472" fill="none" xmlns="http://www.w3.org/2000/svg">
<path d="M327.87 163.5C327.87 169.74 327.52 175.88 326.83 181.92C326.79 182.33 326.74 182.74 326.69 183.15L326.57 185.1C326.07 206.95 320.92 225.84 313.47 242.46C313.26 242.94 313.04 243.41 312.82 243.88C301.24 268.56 284.88 288.49 271.62 305.26C270.87 306.22 270.12 307.17 269.38 308.11C268.64 309.04 267.92 309.97 267.21 310.89C257.57 323.33 244.37 339.86 231.55 357.08C229.14 360.31 226.75 363.57 224.41 366.83C220.78 371.85 217.25 376.87 213.92 381.82C211.87 384.86 209.89 387.86 208.01 390.82C205.29 395.11 202.76 399.3 200.49 403.33C196.52 410.38 193.37 416.95 191.38 422.73C191.03 423.76 190.68 424.77 190.35 425.76C180.82 454.01 178.58 467.41 164.84 471.07C150.63 474.86 146.84 442.64 134.51 414.2C122.19 385.77 85.2299 339.33 45.4199 290.99C5.60992 242.65 1.32007 181.01 1.32007 181.01H1.80005C1.18005 175.26 0.870117 169.42 0.870117 163.5C0.870117 73.2 74.0701 0 164.37 0C240.74 0 304.88 52.36 322.84 123.14C322.89 123.3 322.93 123.46 322.97 123.62C324.75 130.71 326.07 137.99 326.88 145.43C327.16 148.04 327.39 150.67 327.55 153.33C327.67 155.2 327.75 157.08 327.8 158.96C327.85 160.47 327.87 161.98 327.87 163.5Z" fill="#FFCC00"/>
<path d="M229.72 184.55C229.6 184.92 229.5 185.22 229.42 185.46L229.72 184.55Z" fill="#E3BA00"/>
<path d="M327.87 163.5C327.87 169.74 327.52 175.88 326.83 181.92C326.79 182.33 326.74 182.74 326.69 183.15L326.57 185.1C326.07 206.95 320.92 225.84 313.47 242.46C313.26 242.94 313.04 243.41 312.82 243.88C301.24 268.56 284.88 288.49 271.62 305.26C270.87 306.22 270.12 307.17 269.38 308.11C268.64 309.04 267.92 309.97 267.21 310.89C257.57 323.33 244.37 339.86 231.55 357.08C229.14 360.31 226.75 363.57 224.41 366.83L15.1499 160.97C15.6899 161.08 16.25 161.15 16.74 161.25C28.42 163.65 40.0499 166.24 51.6799 168.86C59.4299 170.61 65.38 174.45 69.7 181.55C74.38 189.24 79.24 196.85 84.97 203.8C93.2 213.78 102.96 221.64 114.72 226.52C128.71 232.32 143.4 234.31 158.28 235.11C158.94 235.15 159.53 235.1 160.08 234.94C160.67 235.2 161.23 235.41 161.78 235.59C155.59 241.52 149.28 247.3 142.24 252.2C139 254.46 135.58 256.45 132.77 259.29C130.92 261.16 128.35 262.97 129.54 266.15C130.64 269.1 133.61 269.36 136.23 269.86C136.42 269.9 136.62 269.86 136.82 269.86C146.91 269.89 155.93 266.83 163.5 259.92C168.18 255.64 173.33 252.1 179.41 250.63C186.47 248.92 192.18 245.38 196.95 239.82C199.75 236.55 203.31 234.21 207.3 232.6C211.49 230.92 214.99 228.26 217.77 224.62C218.18 224.77 218.54 224.94 218.85 225.12C218.87 225.13 218.89 225.15 218.92 225.17C219.79 225.71 220.23 226.36 220.55 226.98C220.51 227.14 220.48 227.29 220.46 227.46C217.91 241.43 214.26 255.06 209.44 268.34C208.56 270.78 207.75 273.31 207.67 275.99C207.57 279.65 208.86 280.84 212.29 280.37C215.86 279.89 218.78 278.33 220.93 275.28C222.36 273.24 223.84 271.29 226.6 270.93C227.9 270.76 228.77 269.65 229.09 268.23C229.52 266.26 230.01 264.29 230.43 262.32C231.71 256.19 232.61 249.94 236.06 244.56C237.04 243.03 237.45 241.1 237.19 239.29C236.14 232.04 236.77 224.91 238.08 217.17C238.43 216.82 238.63 216.63 238.63 216.63L239.65 213.36C254.74 203.92 269 193.27 281.78 180.47C288.99 173.23 296.08 165.8 304.35 159.88C311.38 154.85 314.82 147.91 316.42 139.55C316.59 138.7 316.65 138.08 316.51 137.67C316.66 137.12 316.65 136.46 316.3 135.72L326.88 145.43C327.16 148.04 327.39 150.67 327.55 153.33C327.67 155.2 327.75 157.08 327.8 158.96C327.85 160.47 327.87 161.98 327.87 163.5Z" fill="#E3BA00"/>
<path d="M316.51 137.67C316.65 138.08 316.59 138.7 316.42 139.55C314.82 147.91 311.38 154.85 304.35 159.88C296.08 165.8 288.99 173.23 281.78 180.47C269 193.27 254.74 203.92 239.65 213.36L238.63 216.63C238.63 216.63 238.43 216.82 238.08 217.17C236.77 224.91 236.14 232.04 237.19 239.29C237.45 241.1 237.04 243.03 236.06 244.56C232.61 249.94 231.71 256.19 230.43 262.32C230.01 264.29 229.52 266.26 229.09 268.23C228.77 269.65 227.9 270.76 226.6 270.93C223.84 271.29 222.36 273.24 220.93 275.28C218.78 278.33 215.86 279.89 212.29 280.37C208.86 280.84 207.57 279.65 207.67 275.99C207.75 273.31 208.56 270.78 209.44 268.34C214.26 255.06 217.91 241.43 220.46 227.46C220.48 227.29 220.51 227.14 220.55 226.98C220.23 226.36 219.79 225.71 218.92 225.17C218.89 225.15 218.87 225.13 218.85 225.12C218.54 224.94 218.18 224.77 217.77 224.62C214.99 228.26 211.49 230.92 207.3 232.6C203.31 234.21 199.75 236.55 196.95 239.82C192.18 245.38 186.47 248.92 179.41 250.63C173.33 252.1 168.18 255.64 163.5 259.92C155.93 266.83 146.91 269.89 136.82 269.86C136.62 269.86 136.42 269.9 136.23 269.86C133.61 269.36 130.64 269.1 129.54 266.15C128.35 262.97 130.92 261.16 132.77 259.29C135.58 256.45 139 254.46 142.24 252.2C149.28 247.3 155.59 241.52 161.78 235.59C161.23 235.41 160.67 235.2 160.08 234.94C159.53 235.1 158.94 235.15 158.28 235.11C143.4 234.31 128.71 232.32 114.72 226.52C102.96 221.64 93.2 213.78 84.97 203.8C79.24 196.85 74.38 189.24 69.7 181.55C65.38 174.45 59.4299 170.61 51.6799 168.86C40.0499 166.24 28.42 163.65 16.74 161.25C16.25 161.15 15.6899 161.08 15.1499 160.97C13.8699 160.72 12.68 160.24 12.7 158.56C12.72 156.43 14.9999 155.77 16.6699 155.67C23.8399 155.21 30.3499 152.67 36.8999 149.92C42.0699 147.76 47.69 148.26 53.2 148.69C55.25 148.85 57.3201 148.98 59.3701 149.04C61.8001 149.11 63.8499 148.35 64.9099 145.89C65.9199 143.57 68.0001 142.82 70.1001 142.38C76.7201 141.01 82.68 138.05 88.5 134.72C88.84 134.52 89.16 134.27 89.53 134.16C90.54 133.85 91.6099 133.26 92.6299 134.03C93.8499 134.95 93.3901 136.33 93.0701 137.41C91.4801 142.62 89.8001 147.81 88.0901 152.98C87.2001 155.66 86.1899 158.3 85.1899 160.94C84.4999 162.73 84.9501 164.06 86.5501 165.1C99.1001 173.33 112.69 177.39 127.48 176.62C129.61 176.51 131.22 175.55 131.98 173.36C132.28 172.51 132.69 171.69 133.07 170.87C134.98 166.74 136.3 166.18 140.5 167.97C142.36 168.77 144.25 169.21 146.23 169.34C148.59 169.5 151.03 169.62 153.15 170.68C158.28 173.23 163.51 172.69 168.75 171.81C189.57 168.33 209.33 161.26 228.81 153.31C237.62 149.72 246.33 145.87 254.73 141.34C257.28 139.97 260.03 139.28 262.85 138.8C276.09 136.53 289.34 134.24 302.6 131.99C306.1 131.41 309.61 131.1 313.03 132.65C314.32 133.23 315.47 133.92 316.3 135.72C316.65 136.46 316.66 137.12 316.51 137.67Z" stroke="#444444" stroke-width="3" stroke-miterlimit="10" stroke-linecap="round" stroke-linejoin="round"/>
</svg>
