<svg width="328" height="472" viewBox="0 0 328 472" fill="none" xmlns="http://www.w3.org/2000/svg">
<path d="M327.54 163.5C327.54 166.51 327.46 169.5 327.3 172.47C327.12 175.64 326.86 178.8 326.5 181.92C326.46 182.33 326.41 182.74 326.36 183.15L326.24 185.1C325.74 206.95 320.59 225.84 313.14 242.46C312.93 242.94 312.71 243.41 312.49 243.88C300.91 268.56 284.55 288.49 271.29 305.26C270.54 306.22 269.79 307.17 269.05 308.11C268.31 309.04 267.59 309.97 266.88 310.89C257.24 323.33 244.04 339.86 231.22 357.08C225.11 365.29 219.09 373.66 213.59 381.82C211.54 384.86 209.56 387.86 207.68 390.82C206.73 392.32 205.8 393.81 204.89 395.29C203.22 398.03 201.63 400.71 200.16 403.33C196.19 410.38 193.04 416.95 191.05 422.73C190.7 423.76 190.35 424.77 190.02 425.76C180.49 454.01 178.25 467.41 164.51 471.07C150.3 474.86 146.51 442.64 134.18 414.2C121.86 385.77 84.9 339.33 45.09 290.99C5.27996 242.65 0.98999 181.01 0.98999 181.01H1.46997C0.849971 175.26 0.540039 169.42 0.540039 163.5C0.540039 73.2 73.74 0 164.04 0C240.41 0 304.55 52.36 322.51 123.14C322.56 123.3 322.6 123.46 322.64 123.62C325.05 133.21 326.61 143.14 327.22 153.33C327.34 155.2 327.42 157.08 327.47 158.96C327.52 160.47 327.54 161.98 327.54 163.5Z" fill="#FFCC00"/>
<path d="M311.67 152.08C311.67 152.25 311.66 152.42 311.65 152.59C311.46 154.91 311.43 154.98 311.98 156.83C312.44 158.34 312.09 159.78 310.99 160.96C309.49 162.57 307.66 163.85 305.59 164.4C283.58 170.2 266.39 184.81 247.3 195.98C242.01 199.08 238.8 203.09 236.71 208.83C233.26 218.3 227.13 226.24 220.43 233.7C219.46 234.78 218.48 236.18 216.72 235.13C215.29 234.28 214.92 232.91 215.12 231.29C215.56 227.6 215.33 223.92 215.13 220.22C214.74 212.99 218.61 207.43 222.83 202.09C223.65 201.05 224.62 200.13 225.24 198.85C222.11 199.9 220.66 202.79 218.89 205.19C217.59 206.95 216.17 207.82 214.04 208.31C183.94 215.17 153.62 214.6 123.22 211.08C104.22 208.88 85.24 206.58 66.26 204.24C61.82 203.69 58.23 204.62 55.01 208.06C49.94 213.49 44.0099 217.99 37.5699 221.72C33.5499 224.06 29.21 225.43 24.48 225.16C23.25 225.09 22.3 224.87 21.64 224.5L20.39 225.75L204.89 395.29C205.8 393.81 206.73 392.32 207.68 390.82C209.56 387.86 211.54 384.86 213.59 381.82C219.09 373.66 225.11 365.29 231.22 357.08C244.04 339.86 257.24 323.33 266.88 310.89C267.59 309.97 268.31 309.04 269.05 308.11C269.79 307.17 270.54 306.22 271.29 305.26C284.55 288.49 300.91 268.56 312.49 243.88C312.71 243.41 312.93 242.94 313.14 242.46C320.59 225.84 325.74 206.95 326.24 185.1L326.36 183.15C326.41 182.74 326.46 182.33 326.5 181.92C326.86 178.8 327.12 175.64 327.3 172.47L311.67 152.08ZM213.48 219.34C213.11 221.7 205.76 227.91 203.48 228.01C201.03 228.12 200.37 226.4 200.86 224.56C201.62 221.69 201.88 218.81 202.26 215.89C202.6 213.29 204.28 211.3 207.23 210.83C209.99 210.39 212.72 209.82 216.11 209.18C214.82 212.82 214.01 216.04 213.48 219.34Z" fill="#E3BA00"/>
<path d="M216.11 209.18C214.82 212.82 214.01 216.04 213.48 219.34C213.11 221.7 205.76 227.91 203.48 228.01C201.03 228.12 200.37 226.4 200.86 224.56C201.62 221.69 201.88 218.81 202.26 215.89C202.6 213.29 204.28 211.3 207.23 210.83C209.99 210.39 212.72 209.82 216.11 209.18Z" fill="#E3BA00"/>
<path d="M123.61 39.44C124.89 39.44 126.49 39.65 128.41 40.18C136.52 42.39 140.94 49.02 142.41 49.39C142.64 49.45 143.26 49.46 144.19 49.46C144.95 49.46 145.93 49.45 147.07 49.45C153.57 49.45 165.44 49.73 174.46 53.44C178.23 55 181.16 56.94 183.46 58.99C188.79 63.73 190.64 68.95 191.41 70.75C192.51 73.33 197.67 74.43 199.15 78.12C200.48 81.44 199.41 82.96 191.93 82.96C191.1 82.96 190.2 82.94 189.2 82.9C182.18 82.64 174.42 80.18 169.82 80.18C167.9 80.18 166.53 80.61 165.99 81.8C164.15 85.85 165.25 92.48 160.84 96.17C156.42 99.85 156.05 99.85 154.57 99.85C153.1 99.85 155.68 87.69 152.36 85.11C151.92 84.77 151.06 84.61 149.86 84.61C142.04 84.61 119.7 91.4 103.74 98.74C85.32 107.21 75.01 116.79 75.01 116.79C75.01 116.79 77.9599 126.24 78.5699 133.73C79.1799 141.22 78.1999 143.8 77.8299 144.29C77.8099 144.32 77.78 144.33 77.75 144.33C77.21 144.33 75.2 140.81 74.4 138.15C73.54 135.32 69.98 135.32 68.5 133.97C67.08 132.67 67.48 128.54 65.01 128.54C64.91 128.54 64.7999 128.55 64.6899 128.56C64.6899 128.56 63.22 130.41 58.06 130.41C52.9 130.41 49.22 131.51 47.01 132.62C46.89 132.68 46.8 132.71 46.73 132.71C45.52 132.71 51.7699 123.91 57.6999 119.73C63.9599 115.31 70.5899 113.1 70.5899 113.1C70.5899 113.1 76.8499 86.95 92.6899 73.68C108.53 60.42 121.42 58.95 123.26 54.53C125.11 50.11 121.79 44.22 119.95 42.74C118.54 41.63 119.49 39.44 123.61 39.44ZM123.61 36.44C120.03 36.44 117.4 37.84 116.58 40.19C115.96 41.95 116.54 43.88 118.07 45.1C119.17 45.98 121.68 50.55 120.49 53.39C120.13 54.26 116.66 55.88 113.88 57.19C108.34 59.79 99.96 63.71 90.76 71.41C76.44 83.4 69.7299 104.84 68.0799 110.86C65.6399 111.81 60.7299 113.95 55.9599 117.31C52.3699 119.85 49.19 123.48 47.61 125.42C42.96 131.14 43.4 132.53 43.73 133.55C44.15 134.86 45.35 135.74 46.73 135.74C47.27 135.74 47.82 135.6 48.36 135.33C49.77 134.63 52.91 133.44 58.06 133.44C61 133.44 63.0599 132.91 64.4699 132.29C64.4799 132.33 64.49 132.37 64.51 132.41C64.86 133.62 65.2999 135.12 66.4699 136.2C67.41 137.06 68.5599 137.51 69.5699 137.91C70.6699 138.34 71.4 138.65 71.52 139.05C71.95 140.47 72.69 142.17 73.54 143.71C74.6 145.63 75.72 147.35 77.74 147.35C78.72 147.35 79.6299 146.9 80.2199 146.12C81.5999 144.27 82.07 139.8 81.55 133.51C81.08 127.75 79.33 121.04 78.42 117.82C81.76 115.05 91.02 107.91 104.98 101.49C121.67 93.81 143.17 87.63 149.85 87.63C150.19 87.63 150.43 87.65 150.59 87.66C151.28 89.04 151.15 93.61 151.1 95.39C151 98.73 150.95 100.57 152.22 101.87C152.84 102.51 153.67 102.86 154.56 102.86C157.24 102.86 158.42 102.09 162.75 98.48C166.45 95.39 167.15 90.95 167.71 87.38C167.95 85.84 168.18 84.37 168.6 83.31C168.78 83.26 169.15 83.2 169.81 83.2C171.71 83.2 174.52 83.74 177.5 84.31C181.09 85 185.16 85.78 189.08 85.92C190.1 85.96 191.06 85.98 191.92 85.98C196.63 85.98 200.11 85.47 201.78 83C203.37 80.65 202.28 77.92 201.92 77.02C200.76 74.12 198.29 72.51 196.31 71.22C195.53 70.71 194.36 69.95 194.15 69.57C194.09 69.43 194.02 69.27 193.95 69.08C193.02 66.83 190.83 61.55 185.44 56.75C182.64 54.26 179.33 52.22 175.59 50.67C166.41 46.89 154.91 46.45 147.06 46.45C146.43 46.45 145.85 46.45 145.32 46.45C144.9 46.45 144.52 46.45 144.18 46.45C143.82 46.45 143.56 46.45 143.37 46.44C143.08 46.18 142.67 45.79 142.32 45.45C139.8 43.04 135.59 39.01 129.19 37.27C127.15 36.73 125.27 36.44 123.61 36.44Z" fill="#444444"/>
<path d="M229.39 184.55C229.27 184.92 229.17 185.22 229.09 185.46L229.39 184.55Z" fill="#E3BA00"/>
<path d="M310.99 160.96C309.49 162.57 307.66 163.85 305.59 164.4C283.58 170.2 266.39 184.81 247.3 195.98C242.01 199.08 238.8 203.09 236.71 208.83C233.26 218.3 227.13 226.24 220.43 233.7C219.46 234.78 218.48 236.18 216.72 235.13C215.29 234.28 214.92 232.91 215.12 231.29C215.56 227.6 215.33 223.92 215.13 220.22C214.74 212.99 218.61 207.43 222.83 202.09C223.65 201.05 224.62 200.13 225.24 198.85C222.11 199.9 220.66 202.79 218.89 205.19C217.59 206.95 216.17 207.82 214.04 208.31C183.94 215.17 153.62 214.6 123.22 211.08C104.22 208.88 85.24 206.58 66.26 204.24C61.82 203.69 58.23 204.62 55.01 208.06C49.94 213.49 44.0099 217.99 37.5699 221.72C33.5499 224.06 29.2099 225.43 24.4799 225.16C23.2499 225.09 22.3 224.87 21.64 224.5C20.16 223.68 20.12 222.15 21.75 220.07C25.36 215.44 28.36 210.59 29.54 204.77C29.95 202.76 31.65 202.06 33.26 201.41C35.13 200.66 36.02 199.55 34.62 197.78C31.78 194.17 33.6799 190.25 33.8599 186.49C33.9999 183.7 36.35 183.48 38.42 184.22C42.34 185.62 46.22 187.18 50 188.92C54.09 190.81 57.72 190.65 61.89 188.6C73.34 182.96 85.0999 177.96 96.3199 171.83C102.05 172.99 105.67 166.27 111.5 167.76C117.21 162.32 126.12 164.56 131.95 159.11C135.25 156.03 139.46 155.11 144.01 156.41C155.11 159.58 166.25 157.43 177.33 156.39C196.63 154.57 215.94 152.69 234.92 148.52C235.97 148.28 237.13 148.23 238.04 147.72C248.39 141.87 259.5 143.69 270.46 144.53C281.61 145.38 292.73 146.53 303.86 147.6C305.59 147.77 307.32 148.15 309 148.6C310.81 149.08 311.65 150.36 311.67 152.08C311.67 152.25 311.66 152.42 311.65 152.59C311.46 154.91 311.43 154.98 311.98 156.83C312.44 158.34 312.09 159.78 310.99 160.96Z" stroke="#444444" stroke-width="3" stroke-miterlimit="10" stroke-linecap="round" stroke-linejoin="round"/>
<path d="M216.11 209.18C214.82 212.82 214.01 216.04 213.48 219.34C213.11 221.7 205.76 227.91 203.48 228.01C201.03 228.12 200.37 226.4 200.86 224.56C201.62 221.69 201.88 218.81 202.26 215.89C202.6 213.29 204.28 211.3 207.23 210.83C209.99 210.39 212.72 209.82 216.11 209.18Z" stroke="#444444" stroke-width="3" stroke-miterlimit="10" stroke-linecap="round" stroke-linejoin="round"/>
</svg>
