<svg width="337" height="472" viewBox="0 0 337 472" fill="none" xmlns="http://www.w3.org/2000/svg">
<path d="M335.06 183.15L335.85 183.16C334.47 242.15 297.33 281.51 273.95 310.89C263.55 323.97 249.1 341.55 235.31 359.71C232.95 362.83 230.61 365.96 228.31 369.09C227.38 370.35 226.46 371.61 225.55 372.87C221.58 378.34 217.79 383.77 214.29 389.06C213.13 390.81 212 392.55 210.91 394.26C208.95 397.35 207.1 400.39 205.41 403.33C201.33 410.38 198.09 416.95 196.05 422.73C185.34 453.06 183.39 467.28 168.78 471.07C154.18 474.86 150.29 442.64 137.62 414.2C124.96 385.77 86.99 339.33 46.09 290.99C5.19003 242.65 0.780029 181.01 0.780029 181.01H1.27002C0.64002 175.26 0.320007 169.42 0.320007 163.5C0.320007 73.2 75.52 0 168.3 0C244.8 0 309.36 49.78 329.64 117.88C330.21 119.78 330.75 121.69 331.24 123.62C331.75 125.56 332.21 127.51 332.63 129.47C334 135.78 335 142.22 335.6 148.79C335.66 149.34 335.7 149.9 335.75 150.46V150.5C336.1 154.79 336.28 159.13 336.28 163.5C336.28 168.22 336.07 172.89 335.66 177.5C335.49 179.39 335.29 181.28 335.06 183.15Z" fill="#E24040"/>
<path d="M335.06 183.15L335.85 183.16C334.47 242.15 297.33 281.51 273.95 310.89C263.55 323.97 249.1 341.55 235.31 359.71C232.95 362.83 230.61 365.96 228.31 369.09C227.38 370.35 226.46 371.61 225.55 372.87L61.82 249.83C62.1 249.89 62.42 249.91 62.78 249.91C64.8 249.91 66.82 249.84 68.84 249.84C91.97 249.86 115.11 249.89 138.25 249.91C140 249.91 140.99 249.25 141.23 247.91C150.17 252.32 160.22 254.8 170.84 254.8C181.3 254.8 191.21 252.4 200.05 248.11C200.36 249.49 201.32 249.92 203.36 249.92H278.13C280.7 249.91 281.49 249.12 281.38 246.6C280.68 231.23 273.61 219.7 260.41 211.88C258.13 210.53 255.61 209.68 253.14 208.57C269.5 198.78 269.98 178.97 259.83 168.11C252.62 160.39 242.28 157.93 233.13 160.73C228.44 149.4 220.8 139.62 211.16 132.37C211.24 132.01 211.27 131.57 211.26 131.06C210.83 116.38 204.32 105.11 192.1 97.0801C189.32 95.2501 186.24 94.0101 183.01 92.7801C200.58 82.3801 199.02 61.4401 189.19 51.5601C189.19 51.5601 303.4 128.32 335.6 148.79C335.66 149.34 335.7 149.9 335.75 150.46V150.5C336.1 154.79 336.28 159.13 336.28 163.5C336.28 168.22 336.07 172.89 335.66 177.5C335.49 179.39 335.29 181.28 335.06 183.15Z" fill="#BC3131"/>
<path d="M173.95 215.39V168.47C173.95 168.47 172.39 160.78 165.81 156.77C159.23 152.76 136.83 153.65 136.83 153.65C136.83 153.65 135.38 166.36 140.17 172.93C144.96 179.5 151.43 180.29 158.89 180.17C166.35 180.05 173.71 180.17 173.71 180.17" stroke="#444444" stroke-width="3" stroke-miterlimit="10" stroke-linecap="round" stroke-linejoin="round"/>
<path d="M174.21 186.97C174.21 186.97 178.45 180.8 184.17 179.84C189.89 178.87 204.31 179.77 204.31 179.77C204.31 179.77 204.98 189.5 203.42 193.14C201.86 196.78 197.03 200.2 192.72 200.64C188.41 201.09 174.37 200.64 174.37 200.64" stroke="#444444" stroke-width="3" stroke-miterlimit="10" stroke-linecap="round" stroke-linejoin="round"/>
<path d="M260.41 211.88C258.13 210.53 255.61 209.68 253.14 208.57C269.5 198.78 269.98 178.97 259.83 168.11C249.11 156.64 231.5 156.79 221.12 168.47C211.14 179.7 212.21 199.02 228.05 208.48C227.91 208.84 227.57 208.92 227.25 209.03C220.68 211.35 215.04 215.07 210.4 220.26C203.74 227.69 200.28 236.44 199.94 246.4C199.84 249.16 200.64 249.92 203.36 249.92H278.13C280.7 249.91 281.49 249.12 281.38 246.6C280.68 231.23 273.61 219.7 260.41 211.88ZM219.46 186.16C219.22 174.49 228.46 164.76 239.89 164.43C251.12 164.1 261.46 172.41 261.84 184.98C262.22 197.76 251.83 206.85 240.96 206.71C229.75 207.26 219.71 197.71 219.46 186.16ZM274.83 245.17C263.44 245.11 252.06 245.13 240.67 245.13H207.01C204.76 245.13 204.46 244.87 204.86 242.7C207.15 230.36 213.54 220.98 224.87 215.2C229.21 212.98 233.81 211.86 238.65 211.68C253.19 211.14 264.17 217.3 271.79 229.52C274.42 233.73 275.8 238.45 276.44 243.39C276.61 244.73 276.25 245.17 274.83 245.17Z" fill="#444444"/>
<path d="M115.32 209.56C114.54 209.23 113.74 208.94 112.88 208.6C125.96 200.56 128.74 187.04 124.77 176.42C123.7 173.53 122.12 170.86 120.12 168.57C110.09 157.08 92.26 156.6 81.49 167.85C71.76 178.02 70.98 198.58 87.88 208.53C87.45 209.08 86.77 209.13 86.2 209.35C70.32 215.53 59.85 230.39 59.79 246.83C59.79 248.68 60.35 249.58 61.82 249.83C62.1 249.89 62.42 249.91 62.78 249.91C64.8 249.91 66.82 249.84 68.84 249.84C91.97 249.86 115.11 249.89 138.25 249.91C140.4 249.91 141.41 248.91 141.29 246.86C140.28 229.11 131.59 216.69 115.32 209.56ZM79.27 185.72C79.11 174.28 88.54 164.63 100 164.44C110.53 164.27 119.33 171.7 121.29 181.46C121.51 182.53 121.65 183.62 121.69 184.74C122.15 196.32 112.57 206.37 102.14 206.72C101.68 206.75 101.21 206.74 100.74 206.72C89.15 207.11 79.43 197.46 79.27 185.72ZM132.14 245.13H100.56C89.17 245.13 77.78 245.1 66.39 245.17C65.53 245.17 65.04 245.02 64.84 244.65C64.65 244.35 64.65 243.9 64.75 243.27C67.26 227.73 75.95 217.4 91.02 212.89C93.38 212.18 95.75 211.73 98.11 211.52C103.74 211.03 109.36 211.99 114.83 214.49C126.13 219.67 132.97 228.43 135.82 240.39C136.95 245.11 136.86 245.13 132.14 245.13Z" fill="#444444"/>
<path d="M192.1 97.0801C189.32 95.2501 186.24 94.0101 183.01 92.7801C200.58 82.3801 199.02 61.4401 189.19 51.5601C178.79 41.1001 161.99 41.2701 151.6 51.9501C142.09 61.7301 140.71 82.4901 158.16 92.8101C157.57 93.0301 157.2 93.1901 156.83 93.3101C141.39 98.5901 130.17 113.97 129.92 130.21C129.86 133.6 130.27 134.03 133.66 134.02C139.38 134 145.09 133.96 150.8 133.94C153.34 133.93 155.89 133.92 158.43 133.92C175.14 133.93 191.85 133.99 208.55 134C210.59 134 211.32 133.21 211.26 131.06C210.83 116.38 204.32 105.11 192.1 97.0801ZM149.36 69.6501C149.41 57.9901 158.94 48.5501 170.65 48.5501C177.38 48.5601 183.38 51.7401 187.24 56.7001C190.06 60.3201 191.74 64.8801 191.73 69.8301C191.72 80.7101 183.23 89.8401 172.63 90.8601C171.97 90.9301 171.31 90.9601 170.64 90.9601C158.91 90.9701 149.31 81.3501 149.36 69.6501ZM204.35 129.26H170.36C164.7 129.26 159.03 129.25 153.37 129.25C147.76 129.25 142.15 129.26 136.54 129.3C134.88 129.31 134.64 128.78 134.83 127.31C137.03 110.44 150.24 97.7201 167.03 95.8201C168.15 95.6901 169.27 95.6301 170.4 95.6201C182.71 95.5701 195.43 102.63 201.49 113.26C203.96 117.58 205.5 122.15 206.28 127.03C206.62 129.22 206.57 129.26 204.35 129.26Z" fill="#444444"/>
<path d="M108.39 163.15C113.21 151 121.44 140.58 131.91 133.07" stroke="#444444" stroke-width="3" stroke-miterlimit="10" stroke-linecap="round" stroke-linejoin="round"/>
<path d="M202.43 248.27C193.12 253.09 182.55 255.81 171.34 255.81C159.43 255.81 148.23 252.73 138.51 247.33" stroke="#444444" stroke-width="3" stroke-miterlimit="10" stroke-linecap="round" stroke-linejoin="round"/>
<path d="M209.2 131.97C220.46 139.57 229.3 150.47 234.35 163.29" stroke="#444444" stroke-width="3" stroke-miterlimit="10" stroke-linecap="round" stroke-linejoin="round"/>
</svg>
