<svg width="328" height="472" viewBox="0 0 328 472" fill="none" xmlns="http://www.w3.org/2000/svg">
<path d="M326.32 183.18L327.09 183.19C327.06 184.31 327.03 185.43 326.97 186.54C324.37 243.68 289.16 282.1 266.84 310.92C252.61 329.29 230.6 356.57 213.55 381.85C210.14 386.9 206.94 391.87 204.04 396.67C202.66 398.94 201.35 401.17 200.12 403.36C196.77 409.31 194.01 414.91 192.03 419.99C191.66 420.93 191.32 421.86 191.01 422.76C180.59 453.09 178.69 467.31 164.47 471.1C150.26 474.89 146.47 442.67 134.14 414.23C121.82 385.8 84.86 339.36 45.05 291.02C5.24005 242.68 0.949951 181.04 0.949951 181.04H1.42993C0.809932 175.29 0.5 169.45 0.5 163.53C0.5 73.23 73.7 0.0299988 164 0.0299988C240.54 0.0299988 304.8 52.63 322.6 123.65C322.8 124.43 322.99 125.21 323.17 126C326 138.05 327.5 150.61 327.5 163.53C327.5 169.77 327.15 175.91 326.46 181.95C326.42 182.36 326.37 182.77 326.32 183.18Z" fill="#FFCC00"/>
<path d="M326.32 183.18L327.09 183.19C327.06 184.31 327.03 185.43 326.97 186.54C324.37 243.68 289.16 282.1 266.84 310.92C252.61 329.29 230.6 356.57 213.55 381.85C210.14 386.9 206.94 391.87 204.04 396.67C202.66 398.94 201.35 401.17 200.12 403.36C196.77 409.31 194.01 414.91 192.03 419.99L30.5801 253.81L31.4299 252.71C31.4699 252.66 31.5101 252.6 31.5601 252.53L32.8799 250.81C32.8899 250.81 32.8899 250.8 32.8899 250.8C34.9999 248.29 39.01 244.43 44.5 243.18C52.86 241.28 55.52 241.09 56.28 240.14C57.04 239.19 56.4701 237.29 58.5601 235.39C60.6501 233.49 60.6499 233.49 60.6499 233.49C60.6499 233.49 59.51 237.29 59.51 239C59.51 240.71 61.7899 239.95 64.6399 240.14C67.4899 240.33 67.6799 243.56 67.6799 246.22C67.6799 248.88 71.3001 238.81 72.0601 232.73C72.8201 226.64 74.15 226.26 73.01 223.79C71.87 221.32 72.25 220.75 72.25 220.75C72.25 220.75 114.24 184.84 132.48 175.91C150.72 166.98 146.92 168.88 157.75 165.46C168.58 162.04 175.8 158.81 196.33 155.1C216.85 151.4 234.52 144.56 234.52 144.56C234.52 144.56 236.23 150.26 230.53 152.25C224.83 154.25 224.54 153.39 220.84 155.96C217.13 158.52 214 159.95 214 160.8C214 161.66 225.97 161.37 235.66 161.37C245.35 161.37 255.33 151.68 260.17 147.41C265.02 143.13 266.16 140.85 266.16 140.85C266.16 140.85 270.58 141.14 273.43 141.14C276.28 141.14 275.14 144.98 283.12 146.84C291.1 148.69 298.65 156.24 301.22 160.23C303.78 164.22 307.63 167.5 311.76 168.93C315.89 170.35 315.61 166.93 316.32 165.93C317.03 164.94 316.61 161.09 315.75 159.52C314.9 157.95 313.19 155.53 312.62 153.11C312.05 150.69 310.91 148.55 311.48 147.41C312.05 146.27 319.74 134.3 307.77 114.91C305.9 111.88 303.95 109.2 301.91 106.82L302.28 106.78L323.17 126C326 138.05 327.5 150.61 327.5 163.53C327.5 169.77 327.15 175.91 326.46 181.95C326.42 182.36 326.37 182.77 326.32 183.18Z" fill="#E3BA00"/>
<path d="M18.3601 182.59C22.7101 184.89 27.58 186.82 32.8 188.42C27.66 188.27 22.6201 186.77 18.3601 182.59Z" fill="#E3BA00"/>
<path d="M255.83 223.32C255.77 223.31 255.7 223.31 255.63 223.3C255.66 223.27 255.69 223.25 255.72 223.22C255.76 223.25 255.79 223.28 255.83 223.32Z" fill="black"/>
<path d="M301.91 106.82C303.95 109.2 305.9 111.88 307.77 114.91C319.74 134.3 312.05 146.27 311.48 147.41C310.91 148.55 312.05 150.69 312.62 153.11C313.19 155.53 314.9 157.95 315.75 159.52C316.61 161.09 317.03 164.94 316.32 165.93C315.61 166.93 315.89 170.35 311.76 168.93C307.63 167.5 303.78 164.22 301.22 160.23C298.65 156.24 291.1 148.69 283.12 146.84C275.14 144.98 276.28 141.14 273.43 141.14C270.58 141.14 266.16 140.85 266.16 140.85C266.16 140.85 265.02 143.13 260.17 147.41C255.33 151.68 245.35 161.37 235.66 161.37C225.97 161.37 214 161.66 214 160.8C214 159.95 217.13 158.52 220.84 155.96C224.54 153.39 224.83 154.25 230.53 152.25C236.23 150.26 234.52 144.56 234.52 144.56C234.52 144.56 216.85 151.4 196.33 155.1C175.8 158.81 168.58 162.04 157.75 165.46C146.92 168.88 150.72 166.98 132.48 175.91C114.24 184.84 72.25 220.75 72.25 220.75C72.25 220.75 71.87 221.32 73.01 223.79C74.15 226.26 72.8201 226.64 72.0601 232.73C71.3001 238.81 67.6799 248.88 67.6799 246.22C67.6799 243.56 67.4899 240.33 64.6399 240.14C61.7899 239.95 59.51 240.71 59.51 239C59.51 237.29 59.76 235.91 59.76 235.91C59.76 235.91 60.6501 233.49 58.5601 235.39C56.4701 237.29 57.04 239.19 56.28 240.14C55.52 241.09 52.86 241.28 44.5 243.18C39.01 244.43 34.9999 248.29 32.8899 250.8" stroke="#444444" stroke-width="3" stroke-miterlimit="10" stroke-linecap="round" stroke-linejoin="round"/>
<path d="M31.2 253.06C31.2 253.06 31.2799 252.94 31.4299 252.71C31.4699 252.66 31.5101 252.6 31.5601 252.53C31.8401 252.13 32.2899 251.52 32.8799 250.81C32.8899 250.81 32.8899 250.8 32.8899 250.8" stroke="#444444" stroke-width="3" stroke-miterlimit="10" stroke-linecap="round" stroke-linejoin="round"/>
<path d="M30.9199 253.06C28.7299 252.68 36.7099 239 43.6499 230.73C50.5799 222.46 59.8899 217.81 60.6499 216C61.4099 214.2 63.3099 203.08 68.4399 191.49C73.5799 179.9 80.61 175.15 92.77 162.04C104.93 148.93 127.78 124.61 136.19 115.91C144.59 107.22 148.06 105.98 149.2 101.23C150.34 96.48 150.72 92.3 144.45 84.7C138.18 77.1 132.67 77.1 133.24 75.58C133.81 74.06 138.75 70.83 153.19 72.92C167.63 75.01 187.21 85.84 187.21 85.84C187.21 85.84 190.06 88.12 205.16 84.42C220.27 80.71 233.38 80.71 257.04 85.56C276.99 89.64 290.87 93.93 301.91 106.82" stroke="#444444" stroke-width="3" stroke-miterlimit="10" stroke-linecap="round" stroke-linejoin="round"/>
</svg>
