<svg width="328" height="472" viewBox="0 0 328 472" fill="none" xmlns="http://www.w3.org/2000/svg">
<path d="M327.85 163.78C327.85 170.44 327.45 176.99 326.67 183.43L327.44 183.44C326.09 242.43 289.94 281.79 267.19 311.17C248.77 334.95 217.32 373.64 200.47 403.61C200.47 403.61 200.47 403.61 200.47 403.62C200.26 403.98 200.06 404.33 199.86 404.69C198.55 407.05 197.34 409.36 196.23 411.6C194.23 415.65 192.58 419.48 191.36 423.01C180.94 453.34 179.04 467.56 164.82 471.35C150.61 475.14 146.82 442.92 134.49 414.48C122.17 386.05 85.21 339.61 45.4 291.27C5.59002 242.93 1.30005 181.29 1.30005 181.29H1.78003C1.16003 175.54 0.849976 169.7 0.849976 163.78C0.849976 73.48 74.05 0.280029 164.35 0.280029C240.89 0.280029 305.15 52.88 322.95 123.9C326.13 136.58 327.83 149.85 327.85 163.51V163.78Z" fill="#FFCC00"/>
<path d="M327.85 163.78C327.85 170.44 327.45 176.99 326.67 183.43L327.44 183.44C326.09 242.43 289.94 281.79 267.19 311.17C248.77 334.95 217.32 373.64 200.47 403.61C200.47 403.61 200.47 403.61 200.47 403.62C200.26 403.98 200.06 404.33 199.86 404.69C198.55 407.05 197.34 409.36 196.23 411.6L34.41 256.62C38.46 254.6 45.2 252.58 54.65 252.58C64.1 252.58 66.8 249.2 66.8 249.2C71.97 248.53 71.07 256.62 73.77 259.1C76.47 261.57 82.9899 261.57 84.5699 266.75C86.1399 271.92 90.19 278.89 90.87 277.99C91.54 277.09 93.34 272.37 92.22 258.65C91.09 244.93 85.6899 227.61 85.6899 227.61C85.6899 227.61 104.59 210.06 138.33 194.54C172.07 179.02 221.33 164.85 227.41 169.57C233.48 174.3 228.76 196.57 231.45 196.57C234.15 196.57 234.83 196.57 242.93 189.82C251.02 183.07 249 170.92 252.37 163.5C255.75 156.08 276.67 164.85 294.89 165.52C313.11 166.2 315.81 163.5 313.11 156.75C310.41 150 300.96 147.98 298.94 143.25C297.52 139.95 294.13 130.39 284.37 121.7L285.2 121.44L327.85 163.51V163.78Z" fill="#E3BA00"/>
<path d="M174.74 85.89C177.09 85.89 180.01 86.28 183.54 87.24C198.39 91.28 206.49 103.43 209.19 104.11C209.6 104.21 210.74 104.24 212.45 104.24C213.85 104.24 215.63 104.22 217.72 104.22C229.62 104.22 251.38 104.73 267.89 111.53C274.79 114.38 280.17 117.95 284.37 121.69C294.13 130.38 297.52 139.94 298.94 143.24C300.96 147.97 310.41 149.99 313.11 156.74C315.54 162.82 313.59 165.61 299.88 165.61C298.36 165.61 296.7 165.58 294.89 165.51C282.03 165.04 267.82 160.53 259.38 160.53C255.87 160.53 253.36 161.31 252.37 163.49C249 170.91 251.02 183.06 242.93 189.81C234.83 196.56 234.15 196.56 231.45 196.56C228.76 196.56 233.48 174.29 227.41 169.56C226.6 168.93 225.02 168.64 222.82 168.64C208.49 168.64 167.58 181.08 138.33 194.53C104.59 210.05 85.6899 227.6 85.6899 227.6C85.6899 227.6 91.09 244.92 92.22 258.64C93.34 272.36 91.54 277.08 90.87 277.98C90.83 278.03 90.78 278.06 90.71 278.06C89.71 278.06 86.0399 271.6 84.5699 266.74C82.9899 261.56 76.47 261.56 73.77 259.09C71.18 256.71 71.9 249.15 67.39 249.15C67.2 249.15 67.01 249.16 66.8 249.19C66.8 249.19 64.1 252.57 54.65 252.57C45.2 252.57 38.46 254.59 34.41 256.61C34.19 256.72 34.02 256.77 33.89 256.77C31.67 256.77 43.13 240.65 53.98 233C65.45 224.9 77.6 220.85 77.6 220.85C77.6 220.85 89.07 172.94 118.09 148.64C147.1 124.35 170.72 121.65 174.09 113.55C177.47 105.46 171.4 94.66 168.02 91.96C165.45 89.91 167.19 85.89 174.74 85.89ZM174.74 82.89C169.29 82.89 165.36 84.83 164.22 88.09C163.43 90.34 164.17 92.72 166.15 94.31C168.53 96.21 174.15 105.65 171.33 112.4C170.3 114.88 164.86 117.43 157.97 120.65C147.93 125.35 132.76 132.45 116.17 146.34C89.38 168.77 77.39 209.85 75.09 218.56C71.37 219.95 61.65 223.91 52.25 230.55C47.62 233.82 42.2199 239.06 37.45 244.94C29.78 254.38 30.45 256.49 30.78 257.51C31.21 258.87 32.46 259.78 33.9 259.78C34.51 259.78 35.12 259.62 35.76 259.3C38.54 257.91 44.71 255.58 54.66 255.58C61.91 255.58 65.81 253.74 67.71 252.38C68.13 252.99 68.59 254.58 68.86 255.5C69.48 257.62 70.11 259.8 71.75 261.31C73.13 262.58 74.92 263.27 76.65 263.95C79.43 265.03 81.16 265.82 81.71 267.63C82.44 270.03 83.75 273.05 85.21 275.69C87.43 279.72 88.83 281.08 90.73 281.08C91.74 281.08 92.67 280.62 93.28 279.81C94.29 278.45 96.47 273.69 95.23 258.42C94.29 247.04 90.57 233.51 89.14 228.61C94.05 224.41 111.8 210.08 139.61 197.28C168.24 184.11 208.69 171.66 222.85 171.66C224.82 171.66 225.51 171.93 225.64 171.98C228.05 173.97 227.79 183.38 227.64 188.45C227.47 194.45 227.46 196.94 228.98 198.51C229.65 199.2 230.53 199.57 231.47 199.57C235.26 199.57 236.6 199.02 244.87 192.12C250.92 187.07 252.08 179.76 253.09 173.31C253.6 170.08 254.08 167.03 255.12 164.74C255.6 163.69 258.01 163.54 259.4 163.54C263.11 163.54 268.38 164.55 273.96 165.62C280.45 166.86 287.8 168.27 294.8 168.53C296.65 168.6 298.37 168.63 299.9 168.63C309.17 168.63 313.8 167.37 315.9 164.26C317.85 161.38 316.84 157.96 315.91 155.64C314.08 151.06 309.92 148.36 306.59 146.19C304.47 144.81 302.27 143.38 301.72 142.08C301.6 141.8 301.47 141.49 301.33 141.14C299.69 137.17 295.84 127.88 286.39 119.47C281.48 115.1 275.65 111.5 269.06 108.78C252.66 102.02 231.92 101.24 217.74 101.24C216.59 101.24 215.53 101.24 214.57 101.25C213.8 101.25 213.09 101.26 212.47 101.26C211.08 101.26 210.39 101.24 210.05 101.22C209.49 100.83 208.3 99.69 207.32 98.75C202.88 94.5 195.45 87.39 184.34 84.37C180.78 83.38 177.55 82.89 174.74 82.89Z" fill="#444444"/>
</svg>
