<svg width="327" height="472" viewBox="0 0 327 472" fill="none" xmlns="http://www.w3.org/2000/svg">
<path d="M325.82 183.18L326.59 183.19C325.24 242.18 289.09 281.54 266.34 310.92C250.73 331.07 225.78 361.91 208.27 389.09C205.11 393.99 202.19 398.78 199.62 403.36C195.65 410.41 192.5 416.98 190.51 422.76C180.09 453.09 178.19 467.31 163.97 471.1C149.76 474.89 145.97 442.67 133.64 414.23C121.32 385.8 84.36 339.36 44.55 291.02C4.74 242.68 0.45 181.04 0.45 181.04H0.93C0.31 175.29 0 169.45 0 163.53C0 73.23 73.2 0.0299988 163.5 0.0299988C237.96 0.0299988 300.8 49.81 320.54 117.91C321.1 119.81 321.62 121.72 322.1 123.65C325.3 136.41 327 149.77 327 163.53C327 170.19 326.6 176.74 325.82 183.18Z" fill="#FFCC00"/>
<path d="M325.82 183.18L326.59 183.19C325.24 242.18 289.09 281.54 266.34 310.92C250.73 331.07 225.78 361.91 208.27 389.09L29.6899 231.08C29.6899 231.08 31.3899 230.88 34.2899 230.56C37.7499 232.05 43.6799 233.52 52.2099 233.92C69.2499 234.7 80.5899 232.28 82.3599 233.06C84.1299 233.85 92.9799 245.06 115 252.53C137.02 260 161.01 257.64 186.97 243.09C212.93 228.54 222.89 212.16 222.89 212.16C222.89 212.16 225.77 217.53 226.04 225.53C226.3 233.52 221.19 246.24 223.42 245.06C225.64 243.88 228.27 240.73 233.25 230.9C238.23 221.07 240.85 204.81 240.85 204.81C240.85 204.81 242.69 206.12 245.7 212.68C248.72 219.23 246.09 219.76 247.54 220.02C248.98 220.28 251.86 216.61 252.39 204.03C252.91 191.44 247.54 187.12 248.59 184.76C249.63 182.4 258.81 171.91 266.94 161.16C275.07 150.41 277.43 140.97 289.22 128.39C301.02 115.8 302.6 112.66 303.38 109.51C303.77 107.95 303.45 106.65 302.62 105.87L304.05 104.51L320.54 117.91C321.1 119.81 321.62 121.72 322.1 123.65C325.3 136.41 327 149.77 327 163.53C327 170.19 326.6 176.74 325.82 183.18Z" fill="#E3BA00"/>
<path d="M300.33 105.04C301.28 105.04 302.07 105.34 302.62 105.87C303.45 106.65 303.77 107.95 303.38 109.51C302.6 112.66 301.02 115.8 289.22 128.39C277.43 140.97 275.07 150.41 266.94 161.16C258.81 171.91 249.63 182.4 248.59 184.76C247.54 187.12 252.91 191.44 252.39 204.03C251.88 216.2 249.16 220.03 247.68 220.03C247.63 220.03 247.58 220.03 247.54 220.02C246.09 219.76 248.72 219.23 245.7 212.68C242.69 206.12 240.85 204.81 240.85 204.81C240.85 204.81 238.23 221.07 233.25 230.9C228.27 240.73 225.64 243.88 223.42 245.06C223.32 245.11 223.24 245.14 223.17 245.14C221.63 245.14 226.29 233.17 226.04 225.53C225.77 217.53 222.89 212.16 222.89 212.16C222.89 212.16 212.93 228.54 186.97 243.09C170.46 252.34 154.75 256.67 139.83 256.67C131.29 256.67 123.01 255.25 115 252.53C92.98 245.06 84.13 233.85 82.36 233.06C82.11 232.95 81.66 232.9 81.04 232.9C77.88 232.9 70.1 234.07 59.12 234.07C56.94 234.07 54.64 234.02 52.21 233.91C43.68 233.51 37.75 232.04 34.29 230.55C30.84 229.07 29.86 227.58 31.23 227.16C31.23 227.16 34.23 228.18 39.28 228.18C42.2 228.18 45.81 227.84 49.91 226.76C61.12 223.81 68.4 221.06 70.76 220.67C73.12 220.27 74.49 220.27 74.49 220.27C74.49 220.27 76.85 218.11 83.15 215.95C89.44 213.78 91.21 211.03 95.34 206.7C95.95 206.06 96.48 205.78 96.92 205.78C99.44 205.78 99.24 215.02 97.89 218.7C96.32 223.03 92.98 224.99 92.98 224.99C92.98 224.99 97.62 226.45 103.96 226.45C107.48 226.45 111.52 226 115.59 224.6C127 220.67 135.25 210.24 135.84 201.2C136.43 192.15 123.65 187.43 122.67 184.88C121.98 183.08 125.55 182.58 130.7 182.58C132.86 182.58 135.29 182.67 137.81 182.78C146.33 183.17 156.3 188.02 161.8 188.55C162.03 188.57 162.26 188.58 162.49 188.58C167.75 188.58 172.71 183.13 173.6 182.26C174.52 181.34 195.03 163.05 215.48 147.52C235.93 131.98 252.52 121.56 264.58 119.46C270.58 118.42 273.99 118.28 276.28 118.28C277.07 118.28 277.73 118.3 278.31 118.3C279.45 118.3 280.32 118.24 281.36 117.89C284.5 116.84 295.25 106.35 298.66 105.3C299.26 105.13 299.82 105.04 300.33 105.04ZM300.33 102.04C299.51 102.04 298.65 102.18 297.78 102.44C295.61 103.11 292.5 105.58 287.65 109.58C285.19 111.6 281.48 114.66 280.4 115.06C279.83 115.25 279.34 115.31 278.31 115.31C278.05 115.31 277.77 115.31 277.48 115.3C277.11 115.3 276.71 115.29 276.28 115.29C273.86 115.29 270.29 115.43 264.07 116.51C252.65 118.5 237.11 127.33 213.67 145.14C193.79 160.24 172.86 178.77 171.48 180.15C171.42 180.21 171.34 180.29 171.23 180.4C167.03 184.69 164.16 185.59 162.5 185.59C162.36 185.59 162.23 185.58 162.09 185.57C160.1 185.38 157.07 184.41 153.85 183.39C148.9 181.82 143.29 180.03 137.95 179.79C134.85 179.65 132.61 179.58 130.71 179.58C124.36 179.58 121.63 180.28 120.28 182.25C119.54 183.33 119.39 184.68 119.88 185.95C120.51 187.6 122.09 188.7 124.48 190.37C128.14 192.93 133.15 196.42 132.85 201C132.37 208.28 125.42 218.04 114.62 221.76C111.37 222.88 107.78 223.45 103.96 223.45C102.12 223.45 100.44 223.32 98.99 223.13C99.63 222.16 100.24 221.03 100.71 219.72C101.91 216.44 102.7 208.01 100.34 204.64C99.51 203.45 98.26 202.77 96.92 202.77C95.61 202.77 94.35 203.39 93.17 204.62C92.53 205.29 91.95 205.92 91.39 206.52C88.42 209.74 86.79 211.51 82.17 213.1C77.46 214.71 74.72 216.37 73.4 217.3C72.67 217.35 71.61 217.46 70.25 217.69C69.02 217.89 67.02 218.52 64 219.47C60.36 220.62 55.37 222.19 49.13 223.83C45.79 224.71 42.47 225.15 39.26 225.15C34.85 225.15 32.19 224.29 32.17 224.28C31.86 224.18 31.54 224.13 31.21 224.13C30.91 224.13 30.62 224.17 30.34 224.26C28.75 224.75 27.71 226.01 27.63 227.54C27.51 229.77 29.3 231.64 33.1 233.27C35.74 234.4 41.71 236.38 52.06 236.87C54.39 236.98 56.75 237.03 59.11 237.03C66.39 237.03 72.38 236.51 76.35 236.17C78.42 235.99 80.06 235.85 81.03 235.85C81.09 235.85 81.14 235.85 81.19 235.85C81.49 236.11 81.94 236.51 82.35 236.88C86.4 240.56 95.9 249.16 114.03 255.31C122.43 258.16 131.11 259.61 139.83 259.61C155.56 259.61 171.91 254.91 188.43 245.65C206.55 235.49 217.06 224.5 221.99 218.4C222.5 220.34 222.94 222.79 223.04 225.57C223.16 229.27 221.91 234.49 220.99 238.31C219.78 243.33 219.33 245.21 220.62 246.84C221.24 247.62 222.17 248.07 223.17 248.07C223.74 248.07 224.29 247.93 224.82 247.64C227.59 246.17 230.41 243.07 235.92 232.18C238.92 226.27 241.06 218.3 242.35 212.56C242.55 212.96 242.75 213.4 242.96 213.86C244.46 217.1 244.24 218.26 244.15 218.69C244.06 219.18 243.84 220.33 244.62 221.47C245.15 222.23 245.94 222.72 246.99 222.9C247.21 222.94 247.44 222.96 247.66 222.96C252.11 222.96 254.85 216.26 255.36 204.08C255.72 195.47 253.5 190.33 252.17 187.25C251.92 186.67 251.62 185.98 251.49 185.57C252.4 184.12 255.66 180.09 258.56 176.49C261.72 172.58 265.65 167.72 269.3 162.89C272.64 158.47 275.07 154.22 277.41 150.11C280.9 144 284.5 137.69 291.37 130.36C302.93 118.03 305.23 114.3 306.25 110.15C306.9 107.57 306.31 105.18 304.63 103.6C303.57 102.63 302.02 102.04 300.33 102.04Z" fill="#444444"/>
</svg>
