<svg width="336" height="472" viewBox="0 0 336 472" fill="none" xmlns="http://www.w3.org/2000/svg">
<path d="M334.74 183.15L335.53 183.16C334.15 242.15 297.01 281.51 273.63 310.89C263.23 323.97 248.78 341.55 234.99 359.71C227.54 369.53 220.28 379.52 213.97 389.06C212.81 390.81 211.68 392.55 210.59 394.26C208.63 397.35 206.78 400.39 205.09 403.33C201.01 410.38 197.77 416.95 195.73 422.73C185.02 453.06 183.07 467.28 168.46 471.07C153.86 474.86 149.97 442.64 137.3 414.2C124.64 385.77 86.67 339.33 45.77 290.99C4.87 242.65 0.46 181.01 0.46 181.01H0.95C0.32 175.26 0 169.42 0 163.5C0 73.2 75.2 0 167.98 0C244.48 0 309.04 49.78 329.32 117.88C329.89 119.78 330.43 121.69 330.92 123.62C331.43 125.56 331.89 127.51 332.31 129.47C333.8 136.31 334.85 143.32 335.43 150.46V150.5C335.78 154.79 335.96 159.13 335.96 163.5C335.96 170.16 335.54 176.71 334.74 183.15Z" fill="#31C980"/>
<path d="M334.74 183.15L335.53 183.16C334.15 242.15 297.01 281.51 273.63 310.89C263.23 323.97 248.78 341.55 234.99 359.71L118.99 273.5L119.5 272.11C133.81 283.66 152.02 290.57 171.84 290.57C217.94 290.57 255.3 253.2 255.3 207.1C255.3 161.84 219.28 125 174.33 123.68L175.26 121.16L174.88 115.29L172.51 101.68C172.51 101.68 174.31 99.94 178.1 96.91C181.89 93.88 186.44 93.12 186.44 93.12C186.44 93.12 192.5 99.18 210.31 95.77C228.12 92.36 237.22 73.79 237.22 73.79L335.21 148.54C335.29 149.18 335.36 149.82 335.43 150.46V150.5C335.78 154.79 335.96 159.13 335.96 163.5C335.96 170.16 335.54 176.71 334.74 183.15Z" fill="#26B26B"/>
<path d="M171.84 123.64C172.67 123.64 173.51 123.65 174.33 123.68C219.28 125 255.3 161.84 255.3 207.1C255.3 253.2 217.94 290.57 171.84 290.57C152.02 290.57 133.81 283.66 119.5 272.11C100.52 256.82 88.38 233.38 88.38 207.1C88.38 161.01 125.75 123.64 171.84 123.64ZM171.84 120.64C124.17 120.64 85.38 159.43 85.38 207.1C85.38 233.39 97.13 257.94 117.62 274.45C132.9 286.78 152.16 293.57 171.84 293.57C219.51 293.57 258.3 254.78 258.3 207.1C258.3 184.45 249.61 163.05 233.82 146.82C218.07 130.63 196.97 121.34 174.42 120.68C173.67 120.65 172.82 120.64 171.84 120.64Z" fill="#444444"/>
<path d="M252.38 232C252.38 232 244.8 228.78 242.91 222.34C241.02 215.9 239.88 212.49 236.85 212.49C233.82 212.49 231.54 215.52 228.13 214.01C224.72 212.49 225.1 206.05 228.13 201.88C231.16 197.71 231.54 177.63 231.54 177.63C231.54 177.63 230.78 177.25 224.34 172.32C217.9 167.39 216.76 164.36 213.73 161.71C210.7 159.06 205.77 161.71 205.39 166.26C205.01 170.81 198.95 168.91 195.54 172.32C192.13 175.73 187.58 185.96 178.11 182.93C168.64 179.9 174.32 165.5 169.77 163.6C165.22 161.71 156.89 156.4 158.78 151.09C160.67 145.78 161.81 139.72 160.67 134.8C159.53 129.88 158.78 123.43 158.78 123.43" stroke="#444444" stroke-width="3" stroke-miterlimit="10" stroke-linecap="round" stroke-linejoin="round"/>
<path d="M111.41 147.31C111.41 147.31 119.37 154.13 119.37 163.6C119.37 173.07 118.61 181.79 123.16 185.96C127.71 190.13 129.22 194.68 129.98 198.84C130.74 203.01 130.36 203.39 127.33 208.31C124.3 213.23 125.81 215.13 132.26 220.82C138.7 226.5 137.19 232.19 136.05 233.7C134.91 235.22 126.2 230.67 121.27 229.91C116.34 229.15 112.93 232.94 109.9 230.67C106.87 228.4 106.87 217.41 103.08 214.38C99.29 211.35 91.33 210.97 87.92 211.73" stroke="#444444" stroke-width="3" stroke-miterlimit="10" stroke-linecap="round" stroke-linejoin="round"/>
<path d="M182.65 243.56C182.65 243.56 189.09 236.36 189.47 234.09C189.85 231.82 188.33 223.86 197.05 223.48C205.77 223.1 208.42 223.48 210.69 226.51C212.96 229.54 208.8 233.71 211.83 237.12C214.86 240.53 216 238.64 219.41 241.67C222.82 244.7 220.17 246.6 217.14 248.87C214.11 251.14 204.26 260.24 200.85 257.59C197.44 254.94 200.85 250.77 194.41 249.25C187.97 247.73 184.18 250.77 181.15 248.87C178.1 246.97 182.65 243.56 182.65 243.56Z" stroke="#444444" stroke-width="3" stroke-miterlimit="10" stroke-linecap="round" stroke-linejoin="round"/>
<path d="M127.7 56.36C127.7 56.36 174.18 69.88 175.32 122.17" stroke="#444444" stroke-width="3" stroke-miterlimit="10" stroke-linecap="round" stroke-linejoin="round"/>
<path d="M172.42 100.7C172.42 100.7 178.1 96.91 180.38 95.02C182.66 93.13 188.34 91.23 188.34 91.23C188.34 91.23 188.34 77.97 199.71 71.15C211.08 64.33 233.82 72.67 234.95 73.04C236.09 73.42 237.22 73.8 237.22 73.8C237.22 73.8 230.4 85.93 217.14 92.75C203.88 99.57 191.94 94.64 190.42 94.08C188.9 93.51 188.34 92.94 188.34 92.94" stroke="#444444" stroke-width="3" stroke-miterlimit="10" stroke-linecap="round" stroke-linejoin="round"/>
<path d="M162.69 83.52C162.69 83.52 169.76 67.6 159.91 54.97C150.06 42.34 135.4 38.3 121.76 42.09C108.12 45.88 97 52.45 97 52.45C97 52.45 109.13 55.99 114.68 67.1C120.23 78.21 126.3 87.82 137.92 91.61C149.54 95.4 161.68 85.29 162.69 83.52Z" stroke="#444444" stroke-width="3" stroke-miterlimit="10" stroke-linecap="round" stroke-linejoin="round"/>
</svg>
