<svg width="336" height="472" viewBox="0 0 336 472" fill="none" xmlns="http://www.w3.org/2000/svg">
<path d="M334.74 183.15L335.53 183.16C334.15 242.15 297.01 281.51 273.63 310.89C263.23 323.97 248.78 341.55 234.99 359.71C227.54 369.53 220.28 379.52 213.97 389.06C212.81 390.81 211.68 392.55 210.59 394.26C208.63 397.35 206.78 400.39 205.09 403.33C201.01 410.38 197.77 416.95 195.73 422.73C185.02 453.06 183.07 467.28 168.46 471.07C153.86 474.86 149.97 442.64 137.3 414.2C124.64 385.77 86.67 339.33 45.77 290.99C4.87 242.65 0.46 181.01 0.46 181.01H0.95C0.32 175.26 0 169.42 0 163.5C0 73.2 75.2 0 167.98 0C244.48 0 309.04 49.78 329.32 117.88C329.89 119.78 330.43 121.69 330.92 123.62C331.43 125.56 331.89 127.51 332.31 129.47C333.8 136.31 334.85 143.32 335.43 150.46V150.5C335.78 154.79 335.96 159.13 335.96 163.5C335.96 170.16 335.54 176.71 334.74 183.15Z" fill="#31C980"/>
</svg>
