<svg width="327" height="472" viewBox="0 0 327 472" fill="none" xmlns="http://www.w3.org/2000/svg">
<path d="M325.82 183.43L326.59 183.44C325.24 242.43 289.09 281.79 266.34 311.17C247.92 334.95 216.47 373.64 199.62 403.61C195.65 410.66 192.5 417.23 190.51 423.01C180.09 453.34 178.19 467.56 163.97 471.35C149.76 475.14 145.97 442.92 133.64 414.48C121.32 386.05 84.36 339.61 44.55 291.27C4.74 242.93 0.45 181.29 0.45 181.29H0.93C0.31 175.54 0 169.7 0 163.78C0 73.48 73.2 0.280029 163.5 0.280029C240.04 0.280029 304.3 52.88 322.1 123.9C325.3 136.66 327 150.02 327 163.78C327 170.44 326.6 176.99 325.82 183.43Z" fill="#FFCC00"/>
<path d="M325.82 183.43L326.59 183.44C325.24 242.43 289.09 281.79 266.34 311.17C247.92 334.95 216.47 373.64 199.62 403.61L56.22 273.77C56.22 273.77 57.36 273.58 59.57 273.04C65.38 273.83 71.37 275.34 77.01 274.55C99.38 271.39 121.48 266.64 142.9 259.35C155.18 255.18 167.11 249.99 179.12 245.07C182.42 243.72 184.97 244.3 187.59 246.43C188.53 247.2 190.16 248.23 190.95 247.9C195.66 245.91 199.25 248.15 202.92 250.49C203.68 250.98 204.54 251.3 205.36 251.69V251.7C209.31 254.82 213.68 256.84 218.59 254.54C220.33 253.73 221.79 251.6 222.53 249.73C222.78 249.13 220.45 247.27 219.07 246.32C217.41 245.18 215.48 244.47 213.76 243.41C212.97 242.7 212.17 241.99 211.37 241.28C210.5 239.89 210.93 238.44 212.69 236.78C217.27 232.45 221.91 228.17 226.76 224.16C230.37 221.17 235.68 222.62 238.12 226.95C239.03 228.57 239.52 230.47 240.62 231.92C241.6 233.21 243.43 235.12 244.4 234.87C246.02 234.45 247.88 232.78 248.53 231.19C251.02 225.07 249.41 219.41 245.37 214.49C243.61 212.34 241.68 210.37 241.64 207.95C241.78 207.38 241.88 206.79 241.95 206.21C242.19 205.53 242.58 204.83 243.16 204.07C243.54 203.58 243.36 202.16 242.9 201.61C242.29 200.89 241.84 200.15 241.49 199.4C241.3 198.63 241.06 197.86 240.78 197.1C240.37 194.78 240.78 192.35 241.3 189.81C241.53 188.67 241.72 187.52 241.9 186.37C243.09 180.13 244.28 173.89 245.47 167.64C247.84 160.78 251.29 154.25 254.18 147.54C259.71 134.71 265.75 122.06 270.54 108.96C274.08 99.27 275.38 88.95 272.21 78.65C271.72 77.04 271.01 75.49 270.49 74.16L322.1 123.9C325.3 136.66 327 150.02 327 163.78C327 170.44 326.6 176.99 325.82 183.43Z" fill="#E3BA00"/>
<path d="M82.57 66.63C83.61 73.04 84.52 79.58 85.77 86.06C87.63 91.78 90.34 97.15 93.78 101.99C94.59 102.74 95.41 103.49 96.28 104.17C102.23 108.84 108.05 113.71 114.26 118.02C115.48 118.87 116.83 119.26 118.18 119.26C120.86 119.26 123.55 117.71 125.24 115.2C127.55 111.77 129.6 110.27 132.7 110.27C133.81 110.27 135.06 110.46 136.51 110.83C141.53 112.1 146.55 113.4 151.51 114.87C158.39 116.91 165.28 118.65 172.47 118.65C173.49 118.65 174.52 118.61 175.56 118.54C181.04 118.15 186.6 118.4 192.03 117.64C201.49 116.33 211.07 115.16 220.26 112.68C235.27 108.62 248.89 101.57 259.27 89.58C263.35 84.87 266.66 79.47 270.48 74.18C270.48 74.17 270.49 74.17 270.49 74.16C271.01 75.49 271.72 77.04 272.21 78.65C275.38 88.95 274.08 99.27 270.54 108.96C265.75 122.06 259.71 134.71 254.18 147.54C251.29 154.25 247.84 160.78 245.47 167.64C244.28 173.89 243.09 180.13 241.9 186.37C241.72 187.52 241.53 188.67 241.3 189.81C240.78 192.35 240.37 194.78 240.78 197.1C241.06 197.86 241.3 198.63 241.49 199.4C241.84 200.15 242.29 200.89 242.9 201.61C243.36 202.16 243.54 203.58 243.16 204.07C242.58 204.83 242.19 205.53 241.95 206.21C241.88 206.79 241.78 207.38 241.64 207.95C241.68 210.37 243.61 212.34 245.37 214.49C249.41 219.41 251.02 225.07 248.53 231.19C247.88 232.78 246.02 234.45 244.4 234.87C244.34 234.89 244.28 234.89 244.22 234.89C243.22 234.89 241.55 233.13 240.62 231.92C239.52 230.47 239.03 228.57 238.12 226.95C236.56 224.18 233.82 222.58 231.1 222.58C229.58 222.58 228.06 223.08 226.76 224.16C221.91 228.17 217.27 232.45 212.69 236.78C210.93 238.44 210.5 239.89 211.37 241.28C212.17 241.99 212.97 242.7 213.76 243.41C215.48 244.47 217.41 245.18 219.07 246.32C220.45 247.27 222.78 249.13 222.53 249.73C221.79 251.6 220.33 253.73 218.59 254.54C217.12 255.23 215.7 255.53 214.32 255.53C211.1 255.53 208.13 253.88 205.36 251.7V251.69C204.54 251.3 203.68 250.98 202.92 250.49C200.24 248.78 197.61 247.13 194.56 247.13C193.42 247.13 192.23 247.36 190.95 247.9C190.85 247.94 190.73 247.96 190.6 247.96C189.74 247.96 188.41 247.1 187.59 246.43C185.92 245.07 184.28 244.34 182.45 244.34C181.41 244.34 180.31 244.58 179.12 245.07C167.11 249.99 155.18 255.18 142.9 259.35C121.48 266.64 99.38 271.39 77.01 274.55C75.9 274.71 74.77 274.77 73.64 274.77C69.02 274.77 64.24 273.67 59.57 273.04C59.45 273.02 59.33 273.01 59.21 272.99C58.29 272.87 57.59 271.18 56.78 270.21C57.65 269.58 58.44 268.57 59.39 268.39C73.66 265.65 84.2 256.96 92.7 246.07C103.06 232.8 109.72 217.63 111.89 200.69C113.21 190.39 113.32 180.11 110.91 170.03C108.91 161.68 105.79 153.6 103.7 145.26C101.66 137.14 102.42 134.57 109.14 132.82C109.99 132.6 110.64 131.51 111.34 130.77C113 129 114.63 127.21 116.37 125.33C116.39 125.33 116.32 125.04 116.15 124.94C113.09 123.04 110.1 121.04 106.95 119.33C90.94 110.59 82.36 96.95 80.42 79.03C79.95 74.62 80.43 70.2 82.57 66.63ZM82.57 63.63C81.53 63.63 80.55 64.17 80 65.09C77.7 68.92 76.84 73.72 77.44 79.35C79.52 98.6 88.97 112.93 105.52 121.97C107.67 123.14 109.72 124.43 111.87 125.8C110.96 126.79 110.06 127.76 109.15 128.73C108.9 129 108.67 129.28 108.46 129.53C108.34 129.68 108.17 129.89 108.04 130.02C99.19 132.45 98.66 137.53 100.79 146C101.81 150.09 103.09 154.14 104.32 158.06C105.63 162.21 106.98 166.5 107.99 170.74C110.05 179.37 110.36 189.05 108.91 200.32C106.86 216.29 100.61 231.06 90.33 244.24C80.96 256.25 70.65 263.19 58.82 265.46C57.36 265.74 56.34 266.64 55.59 267.31C55.37 267.5 55.17 267.69 55.01 267.8C54.34 268.29 53.9 269.03 53.79 269.86C53.69 270.69 53.93 271.52 54.46 272.15C54.6 272.32 54.8 272.63 54.99 272.93C55.75 274.1 56.78 275.69 58.74 275.98C58.82 275.99 58.91 276 58.99 276.02L59.06 276.03C59.09 276.04 59.11 276.04 59.14 276.04C60.47 276.22 61.85 276.45 63.19 276.67C66.59 277.23 70.1 277.8 73.61 277.8C74.95 277.8 76.19 277.72 77.4 277.55C102.01 274.07 123.74 269.06 143.84 262.22C153.68 258.88 163.4 254.84 172.81 250.94C175.28 249.91 177.76 248.89 180.23 247.87C181.05 247.53 181.77 247.37 182.43 247.37C183.13 247.37 184.13 247.53 185.67 248.78C186.67 249.6 188.65 250.99 190.57 250.99C191.1 250.99 191.61 250.89 192.08 250.69C192.94 250.33 193.74 250.15 194.53 250.15C196.75 250.15 198.95 251.55 201.28 253.04C202 253.51 202.74 253.83 203.39 254.12C203.5 254.17 203.61 254.22 203.72 254.27C207.48 257.19 210.85 258.55 214.28 258.55C216.15 258.55 218.02 258.12 219.82 257.28C223.12 255.75 224.82 252.02 225.27 250.88C226.15 248.73 224.83 246.7 220.73 243.88C219.64 243.13 218.52 242.57 217.44 242.03C216.76 241.69 216.1 241.36 215.51 241.01C215.03 240.58 214.54 240.14 214.05 239.71C214.17 239.54 214.37 239.3 214.71 238.99C218.79 235.13 223.64 230.63 228.63 226.5C229.34 225.91 230.16 225.61 231.06 225.61C232.79 225.61 234.48 226.7 235.47 228.45C235.75 228.96 236.01 229.56 236.29 230.2C236.77 231.32 237.32 232.6 238.2 233.76C239.64 235.66 241.85 237.92 244.19 237.92C244.51 237.92 244.82 237.88 245.12 237.8C247.67 237.14 250.26 234.85 251.28 232.35C254.01 225.64 252.76 218.82 247.66 212.61C247.44 212.34 247.21 212.07 246.98 211.8C245.87 210.47 244.81 209.21 244.63 208.2C244.71 207.81 244.78 207.41 244.84 207C244.99 206.67 245.21 206.32 245.51 205.92C246.84 204.21 246.43 201.23 245.17 199.72C244.82 199.31 244.53 198.88 244.29 198.4C244.12 197.74 243.91 197.06 243.67 196.38C243.42 194.6 243.78 192.56 244.21 190.45C244.46 189.21 244.66 187.97 244.83 186.92C246 180.77 247.18 174.62 248.35 168.45C249.85 164.15 251.84 159.85 253.77 155.7C254.82 153.44 255.9 151.1 256.91 148.77C258.5 145.08 260.17 141.33 261.78 137.7C265.77 128.72 269.89 119.44 273.33 110.03C277.52 98.56 278.1 87.72 275.05 77.81C274.66 76.54 274.16 75.33 273.72 74.26C273.56 73.86 273.4 73.48 273.25 73.11C272.79 71.94 271.67 71.2 270.46 71.2C270.28 71.2 270.09 71.22 269.9 71.25C269.07 71.41 268.37 71.9 267.94 72.57C266.72 74.26 265.55 75.96 264.42 77.61C261.96 81.2 259.63 84.58 256.97 87.66C247.83 98.22 235.55 105.47 219.44 109.83C211.38 112 202.81 113.18 194.51 114.31L191.58 114.71C188.42 115.15 185.23 115.23 181.84 115.32C179.7 115.37 177.5 115.43 175.3 115.59C174.36 115.66 173.39 115.69 172.42 115.69C165.97 115.69 159.72 114.23 152.31 112.03C147.57 110.63 142.84 109.39 137.19 107.96C135.46 107.52 133.97 107.31 132.65 107.31C127.59 107.31 124.78 110.47 122.7 113.56C121.56 115.25 119.81 116.3 118.13 116.3C117.34 116.3 116.59 116.06 115.92 115.6C111.39 112.46 106.97 108.93 102.69 105.52C101.15 104.29 99.62 103.07 98.07 101.86C97.37 101.31 96.68 100.69 95.99 100.05C92.83 95.54 90.35 90.6 88.62 85.36C87.77 80.94 87.07 76.41 86.39 72.03C86.09 70.08 85.79 68.13 85.47 66.2C85.27 64.96 84.31 63.97 83.07 63.73C82.95 63.64 82.76 63.63 82.57 63.63Z" fill="#444444"/>
</svg>
