<svg width="328" height="472" viewBox="0 0 328 472" fill="none" xmlns="http://www.w3.org/2000/svg">
<path d="M327.29 163.78C327.29 170.44 326.89 176.99 326.11 183.43L326.88 183.44C325.53 242.43 289.38 281.79 266.63 311.17C253.39 328.27 233.42 353.06 216.99 376.78C211.11 385.25 205.68 393.59 201.18 401.39C200.75 402.13 200.32 402.87 199.91 403.61C199.91 403.61 199.91 403.61 199.91 403.62C199.7 403.98 199.5 404.33 199.3 404.69C197.99 407.05 196.78 409.36 195.67 411.6C193.67 415.65 192.02 419.48 190.8 423.01C180.38 453.34 178.48 467.56 164.26 471.35C150.05 475.14 146.26 442.92 133.93 414.48C121.61 386.05 84.6501 339.61 44.8401 291.27C5.03009 242.93 0.73999 181.29 0.73999 181.29H1.21997C0.599971 175.54 0.290039 169.7 0.290039 163.78C0.290039 73.48 73.49 0.280029 163.79 0.280029C232.99 0.280029 292.15 43.27 316.01 104C318.55 110.44 320.68 117.09 322.39 123.9C325.26 135.33 326.92 147.23 327.23 159.47C327.27 160.81 327.29 162.16 327.29 163.51V163.78Z" fill="#FFCC00"/>
<path d="M327.29 163.78C327.29 170.44 326.89 176.99 326.11 183.43L326.88 183.44C325.53 242.43 289.38 281.79 266.63 311.17C253.39 328.27 233.42 353.06 216.99 376.78L26.71 203.79C26.71 203.79 27.19 202.3 28.01 199.89C40.29 216.17 74.8701 219.24 74.8701 219.24C74.8701 219.24 74.09 220.8 73.7 222.95C73.31 225.09 73.8999 237.18 74.6799 237.38C75.4599 237.57 78.3799 237.18 83.6499 232.89C88.9099 228.6 88.1299 221.78 88.1299 221.78C88.1299 221.78 96.7101 222.56 112.12 222.56C127.52 222.56 149.36 222.49 149.36 222.49C149.36 222.49 151.18 223.53 154.04 225.61C156.9 227.69 167.56 240.17 168.86 239.65C170.16 239.13 174.84 232.11 181.86 228.99C188.88 225.87 197.98 224.83 205.78 222.49C213.58 220.15 219.3 219.63 221.9 217.03C224.5 214.43 244.52 215.47 249.46 218.07C254.4 220.67 256.48 224.57 272.6 228.99C288.72 233.41 296.78 230.29 296.78 230.29C296.78 230.29 283 217.29 283.26 213.39C283.52 209.49 289.24 206.37 292.36 201.69C295.48 197.01 295.74 190.51 295.74 190.51C295.74 190.51 288.98 191.29 281.18 194.15C273.38 197.01 258.56 206.11 249.2 207.41C239.84 208.71 222.48 206.18 222.48 206.18C222.48 206.18 220.73 203.84 215.07 199.16C209.42 194.48 205.71 194.09 189.53 189.21C173.34 184.34 173.73 176.34 173.73 176.34C173.73 176.34 173.73 176.34 170.42 178.68C167.1 181.02 157.74 193.89 157.74 193.89C157.74 193.89 155.6 193.89 140.58 193.11C125.57 192.33 104.9 194.41 80.46 192.85C56.02 191.29 47.77 183.17 47.77 183.17C47.77 183.17 44.4499 176.73 49.1299 170.1C53.8099 163.47 67.85 159.18 94.76 158.01C121.67 156.84 145.72 156.97 152.22 156.19C158.72 155.41 160.28 153.59 164.7 153.85C169.12 154.11 170.42 155.15 178.22 154.37C186.02 153.59 200.58 151.51 208.38 147.87C216.18 144.23 232.04 143.71 266.62 143.19C294.97 142.76 305.14 141.64 306.17 140.82L327.23 159.47C327.27 160.81 327.29 162.16 327.29 163.51V163.78Z" fill="#E3BA00"/>
<path d="M158.13 124.21C179.17 124.21 193.58 125.89 202.14 127.07C217.22 129.15 221.38 134.35 247.64 135.65C273.9 136.94 302.5 139.54 305.62 140.32C306.18 140.46 306.4 140.63 306.17 140.81C305.14 141.63 294.97 142.75 266.62 143.18C232.04 143.7 216.18 144.22 208.38 147.86C200.58 151.5 186.02 153.58 178.22 154.36C176.16 154.57 174.55 154.65 173.22 154.65C169.51 154.65 167.95 154.04 164.7 153.84C164.41 153.82 164.13 153.81 163.86 153.81C160.05 153.81 158.29 155.45 152.22 156.18C145.72 156.96 121.67 156.83 94.76 158C67.85 159.17 53.8099 163.46 49.1299 170.09C44.4499 176.72 47.77 183.16 47.77 183.16C47.77 183.16 56.0199 191.28 80.4599 192.84C87.5199 193.29 94.2599 193.44 100.64 193.44C112.63 193.44 123.36 192.92 132.51 192.92C135.36 192.92 138.05 192.97 140.58 193.1C155.6 193.88 157.74 193.88 157.74 193.88C157.74 193.88 167.1 181.01 170.42 178.67C173.73 176.33 173.73 176.33 173.73 176.33C173.73 176.33 173.34 184.33 189.53 189.2C205.71 194.08 209.42 194.47 215.07 199.15C220.73 203.83 222.48 206.17 222.48 206.17C222.48 206.17 233.47 207.77 242.67 207.77C245.04 207.77 247.28 207.66 249.2 207.4C258.56 206.1 273.38 197 281.18 194.14C288.98 191.28 295.74 190.5 295.74 190.5C295.74 190.5 295.48 197 292.36 201.68C289.24 206.36 283.52 209.48 283.26 213.38C283 217.28 296.78 230.28 296.78 230.28C296.78 230.28 294.02 231.35 288.49 231.35C284.58 231.35 279.28 230.81 272.6 228.98C256.48 224.56 254.4 220.66 249.46 218.06C246.51 216.51 238.21 215.51 231.43 215.51C226.84 215.51 222.95 215.97 221.9 217.02C219.3 219.62 213.58 220.14 205.78 222.48C197.98 224.82 188.88 225.86 181.86 228.98C174.84 232.1 170.16 239.12 168.86 239.64C168.83 239.65 168.8 239.66 168.77 239.66C167.13 239.66 156.84 227.64 154.04 225.6C151.18 223.52 149.36 222.48 149.36 222.48C149.36 222.48 127.52 222.55 112.12 222.55C96.7101 222.55 88.1299 221.77 88.1299 221.77C88.1299 221.77 88.9099 228.59 83.6499 232.88C79.0199 236.65 76.2 237.41 75.06 237.41C74.9 237.41 74.7799 237.4 74.6799 237.37C73.8999 237.17 73.3099 225.08 73.6999 222.94C74.0899 220.79 74.8701 219.23 74.8701 219.23C74.8701 219.23 40.29 216.16 28.01 199.88C27.54 199.27 27.1099 198.63 26.7099 197.98C15.7899 180.04 15.7201 159.3 32.6201 147.34C32.6201 147.34 42.4999 134.87 98.1399 128.11C122.21 125.19 142.1 124.21 158.13 124.21ZM158.13 121.21C139.51 121.21 119.21 122.53 97.77 125.13C45.93 131.43 32.9001 142.6 30.5901 145.1C22.0401 151.27 17.07 159.93 16.24 170.17C15.47 179.62 18.1999 189.77 24.1499 199.54C24.6499 200.35 25.1299 201.06 25.6399 201.71C36.2199 215.73 61.3299 220.45 70.8799 221.78C70.8399 221.98 70.79 222.19 70.75 222.41C70.38 224.44 70.72 230.39 70.76 231.07C71.13 237.39 71.4799 239.66 73.9399 240.29C74.3099 240.38 74.68 240.42 75.06 240.42C76.59 240.42 79.99 239.74 85.54 235.22C89.38 232.09 90.64 227.93 91.01 225C94.82 225.23 101.98 225.56 112.11 225.56C125.64 225.56 144.35 225.51 148.52 225.49C149.26 225.95 150.57 226.8 152.27 228.03C153.23 228.73 155.84 231.47 158.15 233.89C165.05 241.11 166.72 242.66 168.76 242.66C169.18 242.66 169.58 242.58 169.97 242.43C170.99 242.02 171.77 241.18 173.19 239.66C175.28 237.41 178.78 233.64 183.08 231.73C187.12 229.93 192.17 228.81 197.05 227.73C200.24 227.02 203.54 226.29 206.65 225.36C209.03 224.65 211.25 224.1 213.21 223.61C217.84 222.47 221.51 221.56 223.89 219.28C224.43 219.04 226.61 218.51 231.44 218.52C238.89 218.52 246.06 219.66 248.08 220.72C249.2 221.31 250.2 222.01 251.35 222.82C254.95 225.34 259.42 228.48 271.83 231.88C277.82 233.52 283.44 234.36 288.52 234.36C294.43 234.36 297.55 233.22 297.89 233.09C298.85 232.72 299.55 231.88 299.75 230.87C299.95 229.86 299.61 228.82 298.86 228.11C292.49 222.1 286.81 215.47 286.29 213.47C286.49 212.28 288.34 210.48 289.98 208.88C291.61 207.3 293.45 205.5 294.88 203.36C298.18 198.42 298.69 191.93 298.75 190.8C298.76 190.71 298.76 190.61 298.76 190.52C298.76 188.87 297.42 187.52 295.77 187.52H295.76C295.74 187.52 295.73 187.52 295.71 187.52C295.71 187.52 295.71 187.52 295.7 187.52C295.7 187.52 295.7 187.52 295.69 187.52C295.58 187.52 295.47 187.53 295.36 187.55C294.63 187.64 287.92 188.5 280.17 191.35C277.27 192.41 273.52 194.26 269.56 196.21C262.45 199.71 254.39 203.68 248.81 204.45C247.17 204.68 245.12 204.79 242.7 204.79C235.49 204.79 227.03 203.76 224.05 203.37C222.99 202.2 220.85 200.03 217.01 196.86C211.94 192.66 208.2 191.57 198.23 188.66C195.98 188 193.43 187.26 190.43 186.35C177.78 182.55 176.83 177.04 176.77 176.44C176.89 175.28 176.32 174.27 175.32 173.67C174.89 173.41 174.41 173.29 173.92 173.29C173.3 173.29 172.68 173.49 172.14 173.84C172.09 173.87 172.05 173.9 172 173.93L168.72 176.25C165.64 178.42 159.01 187.17 156.28 190.87C154.33 190.8 150 190.62 140.76 190.14C138.35 190.01 135.66 189.95 132.53 189.95C128.23 189.95 123.58 190.06 118.66 190.18C112.94 190.32 107.02 190.46 100.66 190.46C93.4399 190.46 86.8999 190.27 80.6699 189.87C60.7199 188.6 52.11 182.79 50.26 181.35C49.76 180.01 48.6701 176 51.6001 171.85C54.5701 167.64 64.4899 162.35 94.9099 161.03C108.15 160.45 120.72 160.19 130.82 159.98C141.46 159.76 149.15 159.6 152.59 159.19C155.85 158.8 157.98 158.16 159.7 157.65C161.32 157.17 162.39 156.85 163.87 156.85C164.08 156.85 164.3 156.86 164.53 156.87C165.77 156.94 166.73 157.08 167.76 157.23C169.28 157.45 170.86 157.68 173.23 157.68C174.78 157.68 176.51 157.58 178.53 157.38C183.5 156.88 200.41 154.93 209.66 150.61C216.76 147.3 232.49 146.73 266.68 146.21C304.99 145.63 307.06 143.98 308.05 143.19C309.01 142.44 309.45 141.24 309.2 140.06C309.01 139.14 308.35 137.95 306.36 137.45C302.84 136.57 274.01 133.98 247.8 132.69C231.83 131.9 224.4 129.69 217.22 127.55C212.73 126.21 208.5 124.95 202.57 124.14C193.55 122.86 179.16 121.21 158.13 121.21Z" fill="#444444"/>
</svg>
