<svg width="328" height="472" viewBox="0 0 328 472" fill="none" xmlns="http://www.w3.org/2000/svg">
<path d="M327.07 163.78C327.07 170.02 326.72 176.16 326.03 182.2C325.99 182.61 325.94 183.02 325.89 183.43L325.77 185.38C325.27 207.23 320.12 226.12 312.67 242.74C312.46 243.22 312.24 243.69 312.02 244.16C300.44 268.84 284.08 288.77 270.82 305.54C270.07 306.5 269.32 307.45 268.58 308.39C267.84 309.32 267.12 310.25 266.41 311.17C252.18 329.54 230.17 356.82 213.12 382.1C211.07 385.14 209.09 388.14 207.21 391.1C204.49 395.39 201.96 399.58 199.69 403.61C195.72 410.66 192.57 417.23 190.58 423.01C180.16 453.34 178.26 467.56 164.04 471.35C149.83 475.14 146.04 442.92 133.71 414.48C121.39 386.05 84.43 339.61 44.62 291.27C4.80999 242.93 0.52002 181.29 0.52002 181.29H1C0.38 175.54 0.0700073 169.7 0.0700073 163.78C0.0700073 73.48 73.27 0.280029 163.57 0.280029C240.11 0.280029 304.37 52.88 322.17 123.9C325.02 135.25 326.68 147.08 327 159.24C327.05 160.75 327.07 162.26 327.07 163.78Z" fill="#FFCC00"/>
<path d="M17.93 182.84C22.28 185.14 27.15 187.07 32.37 188.67C27.23 188.52 22.19 187.02 17.93 182.84Z" fill="#E3BA00"/>
<path d="M228.92 184.83C228.8 185.2 228.7 185.5 228.62 185.74L228.92 184.83Z" fill="#E3BA00"/>
<path d="M327.07 163.78C327.07 170.02 326.72 176.16 326.03 182.2C325.99 182.61 325.94 183.02 325.89 183.43L325.77 185.38C325.27 207.23 320.12 226.12 312.67 242.74C312.46 243.22 312.24 243.69 312.02 244.16C300.65 268.93 284.25 288.61 270.82 305.54C270.07 306.5 269.32 307.45 268.58 308.39C267.84 309.33 267.12 310.25 266.41 311.17C252.18 329.54 230.17 356.82 213.12 382.1C211.07 385.14 209.09 388.14 207.21 391.1L66.58 245.78C74.9 248.75 68.36 249.35 73.12 248.75C77.87 248.16 99.86 223.2 99.86 223.2C99.86 223.2 101.05 237.46 104.02 240.43C106.99 243.4 120.07 242.81 120.07 242.81C120.07 242.81 111.15 254.69 103.43 261.23C95.7 267.77 98.67 271.34 98.67 271.34C98.67 271.34 94.51 277.28 101.65 279.06C108.78 280.85 115.91 280.25 128.98 272.52C142.06 264.8 145.03 245.19 145.03 245.19C145.03 245.19 161.08 245.78 184.26 238.65C207.44 231.52 217.54 211.9 217.54 211.9C217.54 211.9 225.86 227.36 233.59 247.56C241.31 267.77 240.12 300.46 242.5 299.86C244.88 299.27 257.36 289.76 262.11 265.39C266.87 241.03 256.77 211.31 251.42 205.37C246.07 199.42 230.02 192.88 230.02 192.88L226.53 191.99L228.62 185.74C228.57 185.91 228.53 186.04 228.5 186.16C228.84 185.19 229.64 182.72 230.19 181.02L229.08 184.32C229.48 183.07 230.07 181.22 230.91 178.62C236.56 161.09 228.31 136.94 228.31 136.94C228.31 136.94 239.68 124.46 244.8 124.24C249.93 124.02 251.05 124.24 258.18 123.35C265.31 122.46 268.88 118.22 268.88 117.11C268.88 116.29 266.73 108.92 261.48 103.54L262.69 102.74L327 159.24C327.05 160.75 327.07 162.26 327.07 163.78Z" fill="#E3BA00"/>
<path d="M98.28 78.1C124.2 78.1 136.26 89.68 139.09 94.23C142.06 98.98 152.16 116.22 153.95 116.22C155.73 116.22 167.02 110.27 182.47 109.68C183.05 109.66 183.62 109.65 184.18 109.65C198.71 109.65 208.62 116.81 208.62 116.81C208.62 116.81 217.84 112.2 223.85 103.29C227.33 98.14 233.48 96.19 240.08 96.18C244.9 96.18 249.97 97.22 254.39 98.83C257.2 99.85 259.55 101.56 261.48 103.54C266.73 108.92 268.88 116.29 268.88 117.11C268.88 118.22 265.31 122.46 258.18 123.35C251.05 124.24 249.93 124.02 244.8 124.24C239.68 124.46 228.31 136.94 228.31 136.94C228.31 136.94 236.56 161.09 230.91 178.62C230.07 181.22 229.48 183.07 229.08 184.32L230.54 179.96C230 181.63 228.61 185.87 228.39 186.51C228.44 186.33 228.6 185.81 228.92 184.83L226.53 191.99L230.02 192.88C230.02 192.88 246.07 199.42 251.42 205.37C256.77 211.31 266.87 241.03 262.11 265.39C257.36 289.76 244.88 299.27 242.5 299.86C242.48 299.87 242.46 299.87 242.44 299.87C240.14 299.87 241.24 267.59 233.59 247.56C225.86 227.36 217.54 211.9 217.54 211.9C217.54 211.9 207.44 231.52 184.26 238.65C164.37 244.77 149.73 245.2 145.98 245.2C145.36 245.2 145.03 245.19 145.03 245.19C145.03 245.19 142.06 264.8 128.98 272.52C119.71 278 113.43 279.9 108.01 279.9C105.79 279.9 103.72 279.58 101.65 279.06C94.51 277.28 98.67 271.34 98.67 271.34C98.67 271.34 95.7 267.77 103.43 261.23C111.15 254.69 120.07 242.81 120.07 242.81C120.07 242.81 119.01 242.86 117.43 242.86C113.45 242.86 106.14 242.56 104.02 240.43C101.05 237.46 99.86 223.2 99.86 223.2C99.86 223.2 77.87 248.16 73.12 248.75C72.05 248.89 71.55 248.96 71.32 248.96C70.55 248.96 73.02 248.08 66.58 245.78C58.26 242.81 63.61 222.6 72.52 213.09C81.44 203.58 98.08 200.61 98.08 200.61C98.08 200.61 96.89 165.55 110.56 148.9C124.23 132.26 136.12 124.54 136.12 124.54C136.12 124.54 113.53 109.68 86.79 105.52C60.04 101.36 43.4 104.33 36.86 100.76C30.33 97.2 65.99 79.37 94.51 78.18C95.8 78.12 97.05 78.1 98.28 78.1ZM98.28 75.1C97 75.1 95.69 75.13 94.39 75.18C82.76 75.67 68.42 78.98 55.07 84.29C48.93 86.73 34.51 93 33.2 98.61C32.75 100.56 33.6 102.39 35.43 103.39C39.32 105.51 45.2 105.67 54.09 105.91C62.56 106.14 73.11 106.42 86.34 108.48C105.84 111.51 123.29 120.52 130.71 124.77C126.04 128.39 117.57 135.65 108.25 146.99C96.05 161.85 95.06 189.65 95.06 198.19C89.85 199.45 77.79 203.09 70.34 211.03C62.77 219.11 57.9 233.46 59.9 241.74C60.96 246.11 63.57 247.88 65.58 248.6C67.05 249.12 67.86 249.51 68.29 249.75C68.44 250.24 68.68 250.6 68.86 250.82C69.21 251.24 69.99 251.95 71.33 251.95C71.69 251.95 72.04 251.91 72.8 251.81L73.5 251.72C74.9 251.55 77.52 251.22 90.44 237.83C93.08 235.09 95.63 232.35 97.67 230.12C98.42 234.93 99.72 240.36 101.91 242.55C102.64 243.28 104.71 245.35 113.9 245.78C110.66 249.73 105.84 255.26 101.5 258.94C94.94 264.49 94.67 268.8 95.34 271.2C94.67 272.68 94.02 274.97 94.89 277.29C95.49 278.89 97.02 281 100.93 281.98C103.42 282.6 105.74 282.91 108.02 282.91C114.46 282.91 121.4 280.51 130.51 275.11C141.86 268.41 146.17 254.05 147.5 248.19C153.06 248.06 166.97 247.12 185.15 241.52C202.36 236.23 212.65 224.53 217.28 217.96C220.29 223.98 225.69 235.31 230.79 248.64C235.37 260.62 236.73 277.39 237.63 288.49C237.91 291.95 238.15 294.94 238.44 297.06C238.73 299.24 239.22 302.88 242.44 302.88C242.71 302.88 242.98 302.85 243.24 302.78C247.18 301.8 260.21 290.84 265.06 265.98C270.05 240.45 259.59 209.97 253.65 203.38C247.91 196.99 231.83 190.4 231.15 190.12C231.02 190.07 230.89 190.03 230.76 189.99L230.4 189.9L231.08 187.87C231.14 187.75 231.19 187.63 231.23 187.51C231.46 186.84 232.82 182.7 233.36 181.03C233.45 180.8 233.5 180.56 233.53 180.31C233.61 180.07 233.69 179.82 233.77 179.57C238.83 163.87 233.52 143.74 231.71 137.73C236.58 132.62 242.84 127.35 244.94 127.26C246.26 127.2 247.3 127.18 248.26 127.15C251.1 127.08 253.14 127.02 258.56 126.35C266.7 125.33 271.89 120.21 271.89 117.13C271.89 115.45 269.32 107.29 263.64 101.46C261.18 98.94 258.42 97.11 255.43 96.03C250.39 94.21 244.95 93.2 240.1 93.2C231.58 93.2 225.1 96.11 221.38 101.63C217.27 107.73 211.42 111.71 208.74 113.33C205.18 111.2 196.19 106.67 184.2 106.67C183.59 106.67 182.98 106.68 182.37 106.71C170.53 107.16 161.23 110.57 156.23 112.39C155.7 112.58 155.14 112.79 154.67 112.95C152.21 110.01 146.22 100.15 143.81 96.2C142.92 94.74 142.17 93.5 141.64 92.66C137.57 86.12 123.86 75.1 98.28 75.1Z" fill="#444444"/>
</svg>
