<svg width="337" height="472" viewBox="0 0 337 472" fill="none" xmlns="http://www.w3.org/2000/svg">
<path d="M335.06 183.15L335.85 183.16C334.47 242.15 297.33 281.51 273.95 310.89C263.55 323.97 249.1 341.55 235.31 359.71C232.95 362.83 230.61 365.96 228.31 369.09C227.38 370.35 226.46 371.61 225.55 372.87C221.58 378.34 217.79 383.77 214.29 389.06C213.13 390.81 212 392.55 210.91 394.26C208.95 397.35 207.1 400.39 205.41 403.33C201.33 410.38 198.09 416.95 196.05 422.73C185.34 453.06 183.39 467.28 168.78 471.07C154.18 474.86 150.29 442.64 137.62 414.2C124.96 385.77 86.9901 339.33 46.0901 290.99C5.19009 242.65 0.78009 181.01 0.78009 181.01H1.27008C0.640081 175.26 0.320068 169.42 0.320068 163.5C0.320068 73.2 75.5201 0 168.3 0C244.8 0 309.36 49.78 329.64 117.88C330.21 119.78 330.75 121.69 331.24 123.62C331.75 125.56 332.21 127.51 332.63 129.47C334 135.78 335 142.22 335.6 148.79C335.66 149.34 335.7 149.9 335.75 150.46V150.5C336.1 154.79 336.28 159.13 336.28 163.5C336.28 168.22 336.07 172.89 335.66 177.5C335.49 179.39 335.29 181.28 335.06 183.15Z" fill="#E24040"/>
</svg>
