<svg width="328" height="472" viewBox="0 0 328 472" fill="none" xmlns="http://www.w3.org/2000/svg">
<path d="M325.97 183.15L326.74 183.16C325.39 242.15 289.24 281.51 266.49 310.89C250.88 331.04 225.93 361.88 208.42 389.06C207.29 390.81 206.19 392.55 205.13 394.26C203.22 397.35 201.42 400.39 199.77 403.33C195.8 410.38 192.65 416.95 190.66 422.73C180.24 453.06 178.34 467.28 164.12 471.07C149.91 474.86 146.12 442.64 133.79 414.2C121.47 385.77 84.5099 339.33 44.7 290.99C4.88995 242.65 0.600098 181.01 0.600098 181.01H1.08008C0.460078 175.26 0.149902 169.42 0.149902 163.5C0.149902 73.2 73.3499 0 163.65 0C238.11 0 300.95 49.78 320.69 117.88C321.25 119.78 321.77 121.69 322.25 123.62C322.74 125.56 323.19 127.51 323.6 129.47C325.93 140.44 327.15 151.83 327.15 163.5C327.15 170.16 326.75 176.71 325.97 183.15Z" fill="#FFCC00"/>
<path d="M325.97 183.15L326.74 183.16C325.39 242.15 289.24 281.51 266.49 310.89C250.88 331.04 225.93 361.88 208.42 389.06C207.29 390.81 206.19 392.55 205.13 394.26L25.1201 234.05L32.8201 233.01C32.8201 233.01 42.45 230.92 46.3 224.14C50.15 217.36 43.8901 214.75 58.3301 209.01C72.7801 203.27 80.9599 188.13 82.8899 167.26C84.8099 146.39 93.48 144.83 99.26 132.82C105.03 120.82 114.18 116.65 128.62 100.47C143.06 84.3 165.21 80.12 183.02 84.3C200.84 88.47 198.91 83.78 216.72 88.47C234.54 93.17 248.02 95.78 251.87 107.26C255.72 118.74 256.2 120.3 264.38 138.04C272.57 155.78 275.46 163.61 276.42 177.7C277.38 191.79 271.12 204.83 261.5 223.62C251.87 242.4 237.91 246.05 225.39 250.23C212.87 254.4 182.06 254.92 162.8 249.71C143.55 244.49 141.62 242.92 136.81 243.45C131.99 243.97 139.21 255.45 153.66 260.66C168.1 265.88 188.32 270.58 228.28 265.36C268.24 260.14 272.09 250.23 287.01 226.75C301.94 203.27 309.64 167.79 300.01 143.78C290.38 119.78 274.01 93.17 256.68 81.17C256.34 80.94 256.01 80.71 255.68 80.47C259.12 81.24 261 81.75 261 81.75L323.6 129.47C325.93 140.44 327.15 151.83 327.15 163.5C327.15 170.16 326.75 176.71 325.97 183.15Z" fill="#E3BA00"/>
<path d="M172.13 61.91C177.65 61.91 184.09 62.08 191.69 62.38C229.45 63.92 238.98 68.97 255.68 80.47C256.01 80.71 256.34 80.94 256.68 81.17C274.01 93.17 290.38 119.78 300.01 143.78C309.64 167.79 301.94 203.27 287.01 226.75C272.09 250.23 268.24 260.14 228.28 265.36C215.97 266.97 205.53 267.63 196.56 267.63C176.41 267.63 163.65 264.27 153.66 260.66C139.21 255.45 131.99 243.97 136.81 243.45C137.39 243.39 137.93 243.35 138.46 243.35C142.34 243.35 145.87 245.12 162.8 249.71C172.43 252.31 184.95 253.49 196.62 253.49C208.3 253.49 219.13 252.32 225.39 250.23C237.91 246.05 251.87 242.4 261.5 223.62C271.12 204.83 277.38 191.79 276.42 177.7C275.46 163.61 272.57 155.78 264.38 138.04C256.2 120.3 255.72 118.74 251.87 107.26C248.02 95.78 234.54 93.17 216.72 88.47C209.09 86.46 205.08 86.17 201.59 86.17C200.2 86.17 198.88 86.22 197.46 86.22C194.12 86.22 190.16 85.97 183.03 84.3C178.8 83.31 174.32 82.79 169.75 82.79C155.12 82.79 139.63 88.15 128.63 100.48C114.19 116.66 105.04 120.83 99.2701 132.83C93.4901 144.84 84.8199 146.4 82.8999 167.27C80.9699 188.14 72.7901 203.28 58.3401 209.02C43.9001 214.76 50.1601 217.37 46.3101 224.15C42.4601 230.93 32.8301 233.02 32.8301 233.02L25.1299 234.06C25.1299 234.06 27.5299 218.93 37.6399 213.19C47.7499 207.45 42.46 203.28 48.23 202.23C54.01 201.19 62.2001 198.06 65.5701 190.23C68.9401 182.41 62.6801 171.97 66.5301 157.88C70.3801 143.79 76.16 139.1 81.93 122.4C87.71 105.7 95.41 108.31 106.97 98.4C118.52 88.48 124.3 80.66 134.41 71.79C142.51 64.65 149.69 61.91 172.13 61.91ZM172.13 58.91C148.35 58.91 140.95 62.04 132.42 69.53C127.58 73.78 123.81 77.69 119.81 81.83C115.49 86.31 111.02 90.95 105 96.12C101.33 99.26 98.1301 101.04 95.0401 102.75C88.7301 106.25 83.2901 109.26 79.0801 121.41C76.3901 129.2 73.73 134.23 71.17 139.09C68.36 144.41 65.7101 149.43 63.6201 157.08C61.4201 165.15 62.3 172.16 63 177.79C63.59 182.45 64.0501 186.13 62.7901 189.04C59.6301 196.39 51.16 198.65 47.67 199.27C43.33 200.06 42.4499 202.69 41.8799 204.43C41.3299 206.09 40.7099 207.97 36.1299 210.57C24.8899 216.95 22.2499 232.9 22.1399 233.58C21.9899 234.52 22.29 235.47 22.96 236.15C23.53 236.73 24.3001 237.05 25.1101 237.05C25.2401 237.05 25.38 237.04 25.51 237.02L33.21 235.98C33.29 235.97 33.37 235.96 33.44 235.94C33.89 235.84 44.4299 233.48 48.8899 225.62C50.4299 222.9 50.6801 220.63 50.8701 218.98C51.1402 216.52 51.3 215.03 59.42 211.8C67.14 208.73 73.3499 203.18 77.8899 195.31C82.1599 187.89 84.8401 178.54 85.8601 167.54C87.0501 154.58 90.7999 149.86 95.1499 144.39C97.4699 141.48 99.86 138.46 101.95 134.12C105.2 127.35 109.71 123.17 115.95 117.39C120.23 113.43 125.07 108.93 130.85 102.46C140.32 91.86 154.49 85.78 169.74 85.78C174.04 85.78 178.27 86.26 182.33 87.22C189.83 88.98 194.03 89.22 197.45 89.22C198.19 89.22 198.89 89.21 199.59 89.2C200.25 89.19 200.91 89.18 201.58 89.18C204.49 89.18 208.25 89.35 215.95 91.38C217.35 91.75 218.71 92.1 220.05 92.45C235.11 96.36 245.98 99.18 249.02 108.22L249.23 108.86C252.89 119.78 253.55 121.75 261.65 139.3C269.96 157.3 272.51 164.55 273.42 177.91C274.31 190.95 268.5 203.36 258.82 222.26C250.3 238.87 238.26 242.84 226.6 246.67C225.87 246.91 225.15 247.15 224.43 247.39C218.6 249.33 208.2 250.49 196.61 250.49C184.24 250.49 172.2 249.15 163.57 246.82C157.12 245.07 152.61 243.73 149.31 242.75C143.79 241.11 141.28 240.36 138.45 240.36C137.82 240.36 137.17 240.4 136.47 240.48C134.23 240.72 132.61 242.27 132.35 244.44C131.71 249.75 140.25 259.03 152.63 263.5C161.84 266.83 175.16 270.65 196.55 270.65C206.17 270.65 216.97 269.88 228.66 268.35C247.36 265.91 258.91 262.35 267.29 256.46C275.51 250.68 280.3 243.06 286.93 232.51C287.77 231.18 288.63 229.8 289.54 228.38C304.05 205.56 313.26 168.79 302.79 142.68C293.87 120.45 277.52 91.97 258.38 78.72C258.04 78.49 257.74 78.28 257.44 78.06C257.42 78.04 257.4 78.03 257.38 78.02C239.52 65.72 229.24 60.93 191.81 59.4C183.89 59.06 177.45 58.91 172.13 58.91Z" fill="#444444"/>
</svg>
