<svg width="328" height="472" viewBox="0 0 328 472" fill="none" xmlns="http://www.w3.org/2000/svg">
<path d="M326.08 183.43L326.85 183.44C325.5 242.43 289.35 281.79 266.6 311.17C252.37 329.54 230.36 356.82 213.31 382.1C208.29 389.54 203.71 396.8 199.88 403.61C195.91 410.66 192.76 417.23 190.77 423.01C180.35 453.34 178.45 467.56 164.23 471.35C150.02 475.14 146.23 442.92 133.9 414.48C121.58 386.05 84.62 339.61 44.81 291.27C5 242.93 0.709991 181.29 0.709991 181.29H1.19C0.570002 175.54 0.26001 169.7 0.26001 163.78C0.26001 73.48 73.46 0.280029 163.76 0.280029C240.3 0.280029 304.56 52.88 322.36 123.9C325.56 136.66 327.26 150.02 327.26 163.78C327.26 170.02 326.91 176.16 326.22 182.2C326.18 182.61 326.13 183.02 326.08 183.43Z" fill="#FFCC00"/>
<path d="M326.85 183.44C325.5 242.43 289.35 281.79 266.6 311.17C252.37 329.54 230.36 356.82 213.31 382.1L18.12 182.84C22.38 187.02 27.42 188.52 32.56 188.67H32.57C41.68 191.48 51.88 193.3 62.32 194.43C63.26 195.59 64.17 196.91 65.03 198.36C68.97 205 76 208.94 80.87 214.83C84.02 218.65 84.15 218.2 98.03 223.79C109.41 228.38 120.95 232.2 132.81 235.2C134.79 235.7 136.81 236.11 136.65 238.76C136.25 245.26 140.44 244.58 144.49 243.64C147.01 243.05 149.37 241.78 151.86 240.98C167.69 235.89 184.02 239.48 200.08 238.18C201.76 238.04 202.36 239.11 202.72 240.45C203.85 244.63 205.5 248.62 205.01 253.21C204.3 259.87 202.35 265.94 198.66 271.56C197.22 273.74 196.26 276.37 198.64 278.75C200.82 280.92 203.01 279.69 205.28 278.81C211.31 276.45 216.36 272.8 220.67 267.97C228.53 259.17 233.24 248.63 237.48 237.83C238.44 235.39 239.13 232.85 241.78 231.54C252.01 226.52 262.86 221.78 273.95 221.37C291.05 220.74 300.5 210.19 310.33 198.97C313.52 195.32 310.35 190.17 313.79 186.78V177.58C312.89 174.86 311.47 172.74 309.69 171.06L313.79 170.32L326.22 182.2C326.18 182.61 326.13 183.02 326.08 183.43L326.85 183.44Z" fill="#E3BA00"/>
<path d="M18.12 182.84C22.47 185.14 27.34 187.07 32.56 188.67C27.42 188.52 22.38 187.02 18.12 182.84Z" fill="#E3BA00"/>
<path d="M38.38 99.87C43.79 104.77 46 110.88 48.58 116.6C55.78 132.5 57.42 149.87 61.13 166.67C62.23 171.68 64.13 174.98 69.04 176.74C73.13 178.21 76.91 180.53 80.98 182.04C82.59 182.63 84.21 183.12 85.67 183.12C87.9 183.12 89.75 181.97 90.62 178.28C90.98 176.74 91.82 176.03 92.74 176.03C93.5 176.03 94.31 176.51 94.94 177.4C98.43 182.34 102.4 183.85 106.69 183.85C110.34 183.85 114.23 182.75 118.25 181.74C137.07 176.97 137.82 176.32 136.92 156.61C136.77 153.35 136.93 150.05 137.31 146.81C137.79 142.7 139.41 140.56 141.87 140.56C143.3 140.56 145.01 141.28 146.95 142.77C152.17 146.77 156.62 151.61 160.6 156.87C162.45 159.31 164.59 161.56 166.22 164.13C168.82 168.23 172.14 169.96 176.42 169.96C177.45 169.96 178.53 169.86 179.66 169.67C204.03 165.6 228.56 162.79 253.23 161.14C256.52 160.92 259.8 160.81 263.07 160.81C275.33 160.81 287.41 162.38 299.29 165.76C303.21 166.87 306.9 168.42 309.69 171.06C311.47 172.74 312.89 174.86 313.79 177.58V186.78C310.35 190.17 313.52 195.32 310.33 198.97C300.5 210.19 291.05 220.74 273.95 221.37C262.86 221.78 252.01 226.52 241.78 231.54C239.13 232.85 238.44 235.39 237.48 237.83C233.24 248.63 228.53 259.17 220.67 267.97C216.36 272.8 211.31 276.45 205.28 278.81C203.95 279.33 202.64 279.96 201.35 279.96C200.44 279.96 199.54 279.64 198.64 278.75C196.26 276.37 197.22 273.74 198.66 271.56C202.35 265.94 204.3 259.87 205.01 253.21C205.5 248.62 203.85 244.63 202.72 240.45C202.38 239.19 201.83 238.17 200.37 238.17C200.28 238.17 200.18 238.17 200.08 238.18C197.26 238.41 194.42 238.49 191.59 238.49C185.64 238.49 179.66 238.15 173.71 238.15C166.37 238.15 159.06 238.67 151.86 240.99C149.37 241.79 147.01 243.06 144.49 243.65C143.14 243.96 141.78 244.25 140.57 244.25C138.16 244.25 136.38 243.11 136.65 238.77C136.81 236.12 134.79 235.71 132.81 235.21C120.95 232.21 109.41 228.39 98.03 223.8C84.15 218.21 84.02 218.66 80.87 214.84C76 208.95 68.97 205.01 65.03 198.37C64.17 196.92 63.26 195.6 62.32 194.44C58.38 189.61 53.61 187.23 47.38 187.23C45.57 187.23 43.64 187.43 41.57 187.83C38.92 188.34 36.19 188.69 33.48 188.69C33.18 188.69 32.87 188.69 32.57 188.68H32.56C27.42 188.53 22.38 187.03 18.12 182.85V181.53C23.65 178.05 29.53 175.13 34.61 170.92C38.61 167.6 40.49 163.89 39.67 158.36C38.25 148.85 37.87 139.22 38.63 129.57C39 124.78 38.79 119.95 39 115.14C39.2 110.36 36.83 105.75 38.38 99.87ZM38.38 96.87C38.09 96.87 37.81 96.91 37.53 96.99C36.53 97.29 35.75 98.09 35.48 99.1C34.36 103.34 34.97 106.92 35.5 110.09C35.79 111.83 36.07 113.47 36 115C35.91 117.07 35.9 119.15 35.88 121.17C35.86 123.99 35.84 126.65 35.64 129.32C34.88 139.02 35.23 148.94 36.7 158.78C37.32 162.93 36.19 165.68 32.69 168.59C29.34 171.37 25.62 173.55 21.69 175.86C19.99 176.86 18.23 177.89 16.52 178.97C15.65 179.52 15.12 180.48 15.12 181.51V182.83C15.12 183.64 15.44 184.41 16.02 184.97C20.35 189.22 25.88 191.47 32.47 191.66C32.48 191.66 32.5 191.66 32.51 191.66C32.83 191.67 33.15 191.67 33.48 191.67C36.11 191.67 38.94 191.37 42.14 190.75C44.02 190.39 45.78 190.2 47.38 190.2C52.66 190.2 56.55 192.08 59.99 196.31C60.83 197.35 61.66 198.55 62.44 199.87C64.99 204.16 68.59 207.33 72.07 210.4C74.44 212.49 76.68 214.46 78.55 216.72C81.68 220.51 82.75 220.94 91.15 224.26C92.75 224.89 94.64 225.64 96.9 226.55C108.71 231.32 120.22 235.09 132.07 238.09L132.28 238.14C132.71 238.25 133.31 238.4 133.65 238.54C133.65 238.55 133.65 238.55 133.65 238.56C133.47 241.54 134.07 243.74 135.5 245.26C136.72 246.56 138.43 247.22 140.57 247.22C142.13 247.22 143.76 246.87 145.17 246.55C146.89 246.15 148.45 245.51 149.96 244.89C150.94 244.49 151.86 244.11 152.78 243.82C160.16 241.45 167.5 241.13 173.71 241.13C176.64 241.13 179.65 241.22 182.56 241.3C185.51 241.38 188.57 241.47 191.59 241.47C194.63 241.47 197.33 241.38 199.82 241.19C199.82 241.2 199.82 241.2 199.83 241.21C200.07 242.08 200.32 242.94 200.57 243.77C201.49 246.87 202.36 249.8 202.04 252.87C201.35 259.36 199.43 264.92 196.17 269.89C192.5 275.44 194.83 279.14 196.54 280.85C197.94 282.24 199.56 282.94 201.37 282.94C203.02 282.94 204.46 282.36 205.74 281.84C205.95 281.75 206.17 281.67 206.39 281.58C212.76 279.09 218.17 275.28 222.93 269.94C231.45 260.4 236.36 248.91 240.29 238.9C240.4 238.62 240.51 238.33 240.62 238.04C241.39 236 241.89 234.81 243.13 234.2C252.42 229.64 263.25 224.74 274.08 224.34C292.69 223.65 302.81 212.1 312.61 200.92C314.9 198.3 314.95 195.32 314.99 192.93C315.02 190.91 315.08 189.72 315.92 188.89C316.49 188.33 316.81 187.56 316.81 186.75V177.55C316.81 177.23 316.76 176.91 316.66 176.61C315.66 173.58 314.01 170.96 311.77 168.85C308.98 166.21 305.28 164.31 300.13 162.85C288.32 159.49 275.85 157.79 263.09 157.79C259.79 157.79 256.41 157.9 253.05 158.13C228.05 159.8 203.2 162.68 179.18 166.69C178.19 166.85 177.27 166.94 176.43 166.94C173.03 166.94 170.74 165.61 168.77 162.5C167.64 160.71 166.32 159.11 165.04 157.57C164.32 156.7 163.65 155.88 163.01 155.04C158.44 148.99 153.79 144.2 148.79 140.37C146.34 138.49 144.02 137.54 141.89 137.54C139.94 137.54 135.29 138.41 134.35 146.44C133.93 150.02 133.79 153.48 133.94 156.73C134.36 165.99 134.37 170.61 132.6 172.95C130.79 175.35 125.94 176.68 117.53 178.81L116.32 179.12C112.87 180 109.62 180.83 106.71 180.83C102.76 180.83 99.98 179.28 97.41 175.65C96.22 173.97 94.52 173.01 92.76 173.01C90.83 173.01 88.5 174.21 87.72 177.58C87.13 180.1 86.3 180.1 85.69 180.1C84.62 180.1 83.18 179.62 82.04 179.2C80.2 178.52 78.4 177.65 76.5 176.72C74.45 175.73 72.33 174.7 70.08 173.89C66.62 172.65 65.11 170.66 64.09 166C63.09 161.48 62.23 156.82 61.39 152.32C59.1 139.99 56.74 127.25 51.34 115.34C51.02 114.63 50.7 113.91 50.38 113.18C48.15 108.09 45.62 102.33 40.42 97.62C39.83 97.14 39.11 96.87 38.38 96.87Z" fill="#444444"/>
</svg>
