<svg width="328" height="472" viewBox="0 0 328 472" fill="none" xmlns="http://www.w3.org/2000/svg">
<path d="M327.15 163.5C327.15 169.74 326.8 175.88 326.11 181.92C326.07 182.33 326.02 182.74 325.97 183.15L325.85 185.1C325.35 206.95 320.2 225.84 312.75 242.46C312.54 242.94 312.32 243.41 312.1 243.88C300.52 268.56 284.16 288.49 270.9 305.26C270.15 306.22 269.4 307.17 268.66 308.11C267.92 309.04 267.2 309.97 266.49 310.89C256.85 323.33 243.65 339.86 230.83 357.08C224.72 365.29 218.7 373.66 213.2 381.82C211.15 384.86 209.17 387.86 207.29 390.82C204.57 395.11 202.04 399.3 199.77 403.33C195.8 410.38 192.65 416.95 190.66 422.73C190.31 423.76 189.96 424.77 189.63 425.76C180.1 454.01 177.86 467.41 164.12 471.07C149.91 474.86 146.12 442.64 133.79 414.2C121.47 385.77 84.5099 339.33 44.7 290.99C4.88995 242.65 0.599976 181.01 0.599976 181.01H1.07996C0.459956 175.26 0.150024 169.42 0.150024 163.5C0.150024 73.2 73.35 0 163.65 0C240.02 0 304.16 52.36 322.12 123.14C322.17 123.3 322.21 123.46 322.25 123.62C324.66 133.21 326.22 143.14 326.83 153.33C326.95 155.2 327.03 157.08 327.08 158.96C327.13 160.47 327.15 161.98 327.15 163.5Z" fill="#FFCC00"/>
<path d="M18.01 182.56C22.36 184.86 27.23 186.79 32.45 188.39C27.31 188.24 22.27 186.74 18.01 182.56Z" fill="#E3BA00"/>
<path d="M229 184.55C228.88 184.92 228.78 185.22 228.7 185.46L229 184.55Z" fill="#E3BA00"/>
<path d="M327.15 163.5C327.15 169.74 326.8 175.88 326.11 181.92C326.07 182.33 326.02 182.74 325.97 183.15L325.85 185.1C325.35 206.95 320.2 225.84 312.75 242.46C312.54 242.94 312.32 243.41 312.1 243.88C300.52 268.56 284.16 288.49 270.9 305.26C270.15 306.22 269.4 307.17 268.66 308.11C267.92 309.04 267.2 309.97 266.49 310.89C256.85 323.33 243.65 339.86 230.83 357.08C224.72 365.29 218.7 373.66 213.2 381.82C211.15 384.86 209.17 387.86 207.29 390.82C204.57 395.11 202.04 399.3 199.77 403.33C195.8 410.38 192.65 416.95 190.66 422.73C190.31 423.76 189.96 424.77 189.63 425.76L70.8199 311.04C70.8199 311.04 76.52 311.04 85.86 303.26C95.2 295.48 102.75 276.05 102.75 276.05C102.75 276.05 102.75 276.05 104.48 274.9C106.21 273.75 121.42 268.45 121.42 268.45C121.42 268.45 121.88 276.28 123.27 275.13C124.65 273.98 129.95 262.22 129.95 262.22C129.95 262.22 129.95 262.22 139.63 257.15C149.32 252.08 162.8 242.05 162.8 242.05C162.8 242.05 167.99 248.97 170.41 244.82C172.83 240.67 172.83 229.95 172.83 229.95C172.83 229.95 176.64 228.56 187.7 217.5C198.77 206.43 208.45 193.98 208.45 193.98C208.45 193.98 211.22 198.82 218.82 209.89C226.43 220.96 240.26 227.87 242.69 224.07C245.11 220.26 238.19 211.96 235.42 203.32C232.66 194.67 229.54 165.63 229.54 165.63C229.54 165.63 233.35 160.44 236.46 147.3C239.57 134.16 248.56 121.02 248.56 121.02L249.95 121.36C249.95 121.36 283.15 133.47 286.95 130.01C290.75 126.55 294.9 116.17 296.63 110.64C297.92 106.51 299.22 104.11 297.19 101.43L322.12 123.14C322.17 123.3 322.21 123.46 322.25 123.62C324.66 133.21 326.22 143.14 326.83 153.33C326.95 155.2 327.03 157.08 327.08 158.96C327.13 160.47 327.15 161.98 327.15 163.5Z" fill="#E3BA00"/>
<path d="M296.63 110.64C294.9 116.17 290.75 126.55 286.95 130.01C283.15 133.47 249.95 121.36 249.95 121.36L248.56 121.02C248.56 121.02 239.57 134.16 236.46 147.3C233.35 160.44 229.54 165.63 229.54 165.63C229.54 165.63 232.66 194.67 235.42 203.32C238.19 211.96 245.11 220.26 242.69 224.07C240.26 227.87 226.43 220.96 218.82 209.89C211.22 198.82 208.45 193.98 208.45 193.98C208.45 193.98 198.77 206.43 187.7 217.5C176.64 228.56 172.83 229.95 172.83 229.95C172.83 229.95 172.83 240.67 170.41 244.82C167.99 248.97 162.8 242.05 162.8 242.05C162.8 242.05 149.32 252.08 139.63 257.15C129.95 262.22 129.95 262.22 129.95 262.22C129.95 262.22 124.65 273.98 123.27 275.13C121.88 276.28 121.42 268.45 121.42 268.45C121.42 268.45 106.21 273.75 104.48 274.9C102.75 276.05 102.75 276.05 102.75 276.05C102.75 276.05 95.1999 295.48 85.8599 303.26C76.5199 311.04 70.8199 311.04 70.8199 311.04L70.8299 311.03C70.9599 310.85 72.7899 308.33 74.8699 303.57C77.7999 296.88 81.2099 285.77 81.0799 270.52C80.8499 244.01 68.86 230.41 68.4 229.49C67.94 228.56 74.39 226.72 82.92 232.71C91.45 238.71 99.75 247.24 102.29 252.08C104.82 256.92 104.82 256.92 104.82 256.92C104.82 256.92 121.42 244.24 126.95 237.09C132.49 229.95 134.79 224.18 134.79 224.18C134.79 224.18 129.72 221.88 129.72 218.88C129.72 215.88 134.56 217.96 136.87 217.27C139.17 216.57 139.86 215.88 139.86 215.88C139.86 215.88 144.36 200.9 149.66 190.06C154.97 179.23 161.77 168.85 161.77 168.85C161.77 168.85 145.69 169.78 136.69 163.55C127.7 157.33 127.01 155.08 122.34 152.31C117.68 149.55 120.44 147.64 124.59 146.61C128.74 145.57 149.66 146.61 156.92 145.57C164.19 144.53 179.4 138.48 181.3 137.44C183.21 136.4 183.21 136.4 183.21 136.4C183.21 136.4 189.52 125.43 194.53 119.98C199.55 114.53 203.44 103.73 202.92 102.69C202.92 102.69 199.11 102.34 187.7 96.12C176.29 89.89 172.83 87.82 168.34 85.4C163.84 82.98 166.61 77.44 169.37 72.95C172.14 68.45 174.22 58.77 177.67 54.28C181.13 49.78 188.74 52.55 205.34 62.57C221.94 72.6 229.89 73.99 242.69 79.17C255.48 84.36 252.71 84.71 268.97 90.24C285.22 95.77 287.64 94.39 293.87 98.54C295.44 99.59 296.51 100.53 297.19 101.43C299.22 104.11 297.92 106.51 296.63 110.64Z" stroke="#444444" stroke-width="3" stroke-miterlimit="10" stroke-linecap="round" stroke-linejoin="round"/>
</svg>
