<svg width="328" height="472" viewBox="0 0 328 472" fill="none" xmlns="http://www.w3.org/2000/svg">
<path d="M327.93 163.78C327.93 170.44 327.53 176.99 326.75 183.43L327.52 183.44C326.17 242.43 290.02 281.79 267.27 311.17C249.3 334.37 218.94 371.75 201.82 401.39C201.39 402.13 200.96 402.87 200.55 403.61C200.55 403.61 200.55 403.61 200.55 403.62C200.34 403.98 200.14 404.33 199.94 404.69C198.63 407.05 197.42 409.36 196.31 411.6C194.31 415.65 192.66 419.48 191.44 423.01C181.02 453.34 179.12 467.56 164.9 471.35C150.69 475.14 146.9 442.92 134.57 414.48C122.25 386.05 85.29 339.61 45.48 291.27C5.66998 242.93 1.38 181.29 1.38 181.29H1.85999C1.23999 175.54 0.930054 169.7 0.930054 163.78C0.930054 73.48 74.1301 0.280029 164.43 0.280029C233.63 0.280029 292.79 43.27 316.65 104C319.19 110.44 321.32 117.09 323.03 123.9C326.21 136.58 327.91 149.85 327.93 163.51V163.78Z" fill="#FFCC00"/>
<path d="M327.93 163.78C327.93 170.44 327.53 176.99 326.75 183.43L327.52 183.44C326.17 242.43 290.02 281.79 267.27 311.17C249.3 334.37 218.94 371.75 201.82 401.39L41.23 252.44C42.49 252.62 58.03 239.62 66.98 233.19C76.27 226.53 82.53 223.91 82.53 223.91C82.53 223.91 80.71 239.05 84.75 251.76C84.75 251.76 79.9 252.37 75.87 255.8C71.83 259.23 71.42 260.84 73.64 260.64C75.87 260.44 75.87 258.62 79.3 259.43C82.73 260.24 85.75 258.02 87.37 258.82C88.98 259.63 91 264.48 94.03 268.31C97.06 272.15 102.3 273.96 108.96 275.37C115.63 276.79 125.58 275.85 132.04 282.57C138.5 289.3 142 303.56 151.68 316.48C161.37 329.4 165.95 332.09 166.08 330.47C166.08 330.47 154.11 306.79 155.99 287.69C157.87 268.58 164.06 255.12 167.83 247.86C171.6 240.59 172.41 237.9 171.33 237.36C170.25 236.83 161.1 236.83 152.22 246.24C143.34 255.66 141.46 262.66 138.77 266.7C136.08 270.73 129.08 268.85 122.62 264C116.16 259.16 115.36 252.97 115.36 252.97C115.36 252.97 136.08 240.05 147.92 233.06C159.76 226.06 164.87 224.98 169.18 225.52C173.48 226.06 173.21 232.25 175.37 235.21C177.52 238.17 185.05 238.17 200.39 250.55C215.73 262.93 225.15 280.42 229.72 281.5C234.3 282.57 231.61 284.73 233.49 288.22C235.38 291.72 236.45 293.61 238.07 293.61C239.68 293.61 245.87 289.57 232.95 252.7C220.04 215.84 207.39 215.3 203.89 207.76C200.39 200.23 200.12 198.88 200.12 198.88C200.12 198.88 221.99 178.3 234.9 162.55C247.82 146.81 254.68 134.5 255.69 130.46C256.7 126.43 263.36 119.56 267.2 106.24C271.03 92.92 276.28 88.89 275.88 78.59C275.66 73.15 275 69.97 272.87 68.33L273.92 67.63L316.65 104C319.19 110.44 321.32 117.09 323.03 123.9C326.21 136.58 327.91 149.85 327.93 163.51V163.78Z" fill="#E3BA00"/>
<path d="M266.91 66.87C269.63 66.87 271.54 67.3 272.87 68.33C275 69.97 275.66 73.15 275.88 78.59C276.28 88.89 271.03 92.92 267.2 106.24C263.36 119.56 256.7 126.43 255.69 130.46C254.68 134.5 247.82 146.81 234.9 162.55C221.99 178.3 200.12 198.88 200.12 198.88C200.12 198.88 200.39 200.23 203.89 207.76C207.39 215.3 220.04 215.84 232.95 252.7C245.87 289.57 239.68 293.61 238.07 293.61C236.45 293.61 235.38 291.72 233.49 288.22C231.61 284.73 234.3 282.57 229.72 281.5C225.15 280.42 215.73 262.93 200.39 250.55C185.05 238.17 177.52 238.17 175.37 235.21C173.21 232.25 173.48 226.06 169.18 225.52C168.57 225.44 167.95 225.4 167.3 225.4C163.3 225.4 158.1 227.04 147.92 233.06C136.08 240.05 115.36 252.97 115.36 252.97C115.36 252.97 116.16 259.16 122.62 264C126.65 267.03 130.89 268.9 134.16 268.9C136.13 268.9 137.75 268.22 138.77 266.7C141.46 262.66 143.34 255.66 152.22 246.24C159.4 238.64 166.75 237.18 169.88 237.18C170.62 237.18 171.13 237.26 171.33 237.36C172.41 237.9 171.6 240.59 167.83 247.86C164.06 255.12 157.87 268.58 155.99 287.69C154.11 306.79 166.08 330.47 166.08 330.47C166.06 330.74 165.91 330.89 165.63 330.89C164.26 330.89 159.74 327.22 151.68 316.48C142 303.56 138.5 289.3 132.04 282.57C125.58 275.85 115.63 276.79 108.96 275.37C102.3 273.96 97.0601 272.15 94.0301 268.31C91.0001 264.48 88.9801 259.63 87.3701 258.82C87.1201 258.69 86.8301 258.64 86.5101 258.64C85.1201 258.64 83.1401 259.61 80.9001 259.61C80.3801 259.61 79.8501 259.56 79.3001 259.43C78.6801 259.28 78.1701 259.22 77.7501 259.22C75.8001 259.22 75.4701 260.47 73.6401 260.64C73.5201 260.65 73.4001 260.66 73.3001 260.66C71.4801 260.66 72.0601 259.04 75.8701 255.8C79.9001 252.37 84.7501 251.76 84.7501 251.76C80.7101 239.05 82.5301 223.91 82.5301 223.91C82.5301 223.91 76.27 226.53 66.98 233.19C58.09 239.58 42.7001 252.44 41.2601 252.44C41.2501 252.44 41.24 252.44 41.23 252.44L41.1501 252.37C40.9501 251.16 47.4101 243.69 55.2801 235.01C63.1501 226.33 83.94 211.8 83.94 211.8C83.94 211.8 88.18 199.69 98.07 183.54C107.96 167.4 120.07 154.48 120.07 154.48C120.07 154.48 121.68 146 121.68 135.91C121.68 125.82 121.41 124.07 122.22 122.59C122.63 121.85 123.4 121.41 124.66 121.41C125.92 121.41 127.67 121.85 130.02 122.86C134.73 124.88 137.96 133.22 137.96 133.22C137.96 133.22 147.38 121.92 164.6 106.85C181.82 91.78 188.82 88.41 200.26 81.82C211.69 75.23 221.58 74.76 232.48 73.14C243.38 71.53 252.46 68.1 262.96 67.09C264.44 66.94 265.75 66.87 266.91 66.87ZM266.91 63.87C265.69 63.87 264.3 63.95 262.67 64.11C256.69 64.69 251.09 66.03 245.68 67.34C241.32 68.39 236.81 69.48 232.04 70.18C230.46 70.42 228.89 70.63 227.35 70.84C217.93 72.11 209.03 73.31 198.76 79.23C197.56 79.92 196.41 80.57 195.3 81.21C185.78 86.63 178.26 90.92 162.63 104.6C150.87 114.89 142.77 123.37 138.69 127.86C137.05 124.99 134.5 121.52 131.21 120.11C128.56 118.97 126.42 118.42 124.67 118.42C121.56 118.42 120.16 120.13 119.6 121.16C118.61 122.97 118.62 124.47 118.66 130.06C118.67 131.62 118.69 133.54 118.69 135.93C118.69 143.83 117.66 150.79 117.28 153.12C114.65 156 104.31 167.66 95.5301 182C87.0201 195.89 82.66 206.75 81.46 209.91C77.54 212.68 60.3 225.05 53.07 233.02C37.72 249.95 37.9 251.06 38.2 252.88C38.31 253.57 38.6601 254.19 39.1801 254.65L39.2601 254.72C39.7001 255.1 40.2401 255.35 40.8101 255.43C40.9501 255.45 41.1201 255.46 41.2601 255.46C42.9001 255.46 43.9201 254.85 55.8101 245.53C60.3701 241.96 65.08 238.27 68.73 235.64C72.97 232.6 76.5701 230.42 79.1701 228.98C78.9901 234.05 79.1301 241.97 81.0201 249.61C78.9901 250.28 76.3301 251.47 73.9201 253.52C70.6001 256.34 68.5801 258.74 69.5101 261.28C69.7201 261.84 70.5901 263.66 73.2901 263.66C73.4801 263.66 73.6801 263.65 73.9001 263.63C75.4501 263.49 76.44 262.89 77.1 262.5C77.55 262.23 77.55 262.23 77.74 262.23C77.89 262.23 78.16 262.25 78.6 262.36C79.33 262.53 80.1001 262.62 80.8901 262.62C82.5201 262.62 83.95 262.25 85.09 261.96C85.41 261.88 85.8 261.78 86.1 261.71C86.59 262.34 87.36 263.61 87.95 264.59C89 266.34 90.2001 268.32 91.6701 270.18C95.5001 275.04 101.94 276.96 108.33 278.31C110.16 278.7 112.12 278.92 114.2 279.14C119.9 279.77 125.8 280.41 129.87 284.65C132.71 287.61 135.06 292.5 137.78 298.17C140.77 304.4 144.17 311.46 149.27 318.28C160.98 333.89 164.48 333.89 165.62 333.89C167.46 333.89 168.91 332.55 169.06 330.71C169.1 330.16 169 329.61 168.75 329.12C168.63 328.89 157.2 305.98 158.97 287.99C160.32 274.24 164.09 261.57 170.49 249.25C173.37 243.69 174.61 240.74 174.76 238.71C175.89 239.48 177.28 240.1 178.97 240.85C183.05 242.66 189.23 245.4 198.51 252.89C206.67 259.47 213.29 267.79 218.13 273.86C223.02 279.99 225.97 283.7 229.04 284.42C229.32 284.49 229.53 284.55 229.67 284.6C229.68 284.71 229.68 284.83 229.69 284.94C229.74 286.05 229.82 287.72 230.86 289.65C232.96 293.54 234.62 296.62 238.08 296.62C239.6 296.62 241.07 295.78 242.1 294.32C245.93 288.92 243.8 274.59 235.79 251.71C226.43 224.98 216.86 216.52 211.14 211.47C208.96 209.55 207.39 208.16 206.62 206.5C205.01 203.03 204.11 200.93 203.62 199.71C208.72 194.84 226.26 177.84 237.23 164.46C249.56 149.44 257.32 136.35 258.61 131.2C258.87 130.16 259.97 128.35 261.25 126.26C263.91 121.89 267.56 115.9 270.1 107.09C271.57 101.98 273.27 98.27 274.77 95C277.13 89.85 279.17 85.4 278.9 78.5C278.66 72.57 277.88 68.41 274.72 65.98C272.86 64.53 270.39 63.87 266.91 63.87ZM118.83 254.34C124.21 251 139.85 241.31 149.44 235.64C160.24 229.26 164.52 228.4 167.29 228.4C167.79 228.4 168.28 228.43 168.8 228.5C169.56 228.59 170.03 229.71 170.82 232.19C171.05 232.9 171.27 233.62 171.55 234.32C171.13 234.24 170.58 234.18 169.87 234.18C164.84 234.18 156.99 236.81 150.03 244.18C143.38 251.24 140.48 256.99 138.36 261.19C137.59 262.72 136.93 264.04 136.26 265.03C136.1 265.26 135.69 265.89 134.15 265.89C131.63 265.89 127.99 264.28 124.41 261.6C121.04 259.07 119.51 256.16 118.83 254.34Z" fill="#444444"/>
</svg>
