<svg width="328" height="472" viewBox="0 0 328 472" fill="none" xmlns="http://www.w3.org/2000/svg">
<path d="M327.07 163.5C327.07 169.74 326.72 175.88 326.03 181.92C325.99 182.33 325.94 182.74 325.89 183.15L325.77 185.1C325.27 206.95 320.12 225.84 312.67 242.46C312.46 242.94 312.24 243.41 312.02 243.88C300.44 268.56 284.08 288.49 270.82 305.26C270.07 306.22 269.32 307.17 268.58 308.11C267.84 309.04 267.12 309.97 266.41 310.89C256.77 323.33 243.57 339.86 230.75 357.08C224.64 365.29 218.62 373.66 213.12 381.82C211.07 384.86 209.09 387.86 207.21 390.82C204.49 395.11 201.96 399.3 199.69 403.33C195.72 410.38 192.57 416.95 190.58 422.73C180.16 453.06 178.26 467.28 164.04 471.07C149.83 474.86 146.04 442.64 133.71 414.2C121.39 385.77 84.43 339.33 44.62 290.99C4.80999 242.65 0.52002 181.01 0.52002 181.01H1C0.38 175.26 0.0700073 169.42 0.0700073 163.5C0.0700073 73.2 73.27 0 163.57 0C240.11 0 304.37 52.6 322.17 123.62C324.58 133.21 326.14 143.14 326.75 153.33C326.87 155.2 326.95 157.08 327 158.96C327.05 160.47 327.07 161.98 327.07 163.5Z" fill="#FFCC00"/>
<path d="M327.07 163.5C327.07 169.74 326.72 175.88 326.03 181.92C325.99 182.33 325.94 182.74 325.89 183.15L325.77 185.1C325.27 206.95 320.12 225.84 312.67 242.46C312.46 242.94 312.24 243.41 312.02 243.88C300.44 268.56 284.08 288.49 270.82 305.26C270.07 306.22 269.32 307.17 268.58 308.11C267.84 309.04 267.12 309.97 266.41 310.89C256.77 323.33 243.57 339.86 230.75 357.08L19.16 136.69L23.82 137.52C25.15 140.08 27.74 143.65 32.38 149.11C41.56 159.89 61.28 169.29 61.28 169.29C61.28 169.29 62.88 170.78 64.03 171.81C65.18 172.84 69.65 176.74 69.65 176.74L68.73 172.73C68.73 172.73 74.35 173.3 78.71 175.82C83.06 178.35 87.88 183.62 87.88 183.62C87.88 183.62 87.65 185.92 86.73 188.55C85.82 191.19 84.44 191.19 83.18 192.8C81.92 194.4 82.15 198.53 83.64 200.48C85.13 202.43 87.31 203.92 93.73 204.03C100.15 204.15 111.96 200.36 114.48 200.36C117.01 200.36 115.17 200.71 118.84 202.66C122.51 204.61 137.36 206.5 137.36 206.5C137.36 206.5 137.36 210.11 136.84 213.03C136.33 215.96 134.44 221.12 135.64 222.84C136.84 224.56 136.84 223.53 144.07 220.26C151.29 216.99 152.15 213.72 152.15 213.72C152.15 213.72 152.84 213.21 158.86 210.45C164.88 207.7 164.54 209.59 177.26 207.53C189.99 205.47 205.13 203.57 205.13 203.57C205.13 203.57 209.6 204.61 210.8 205.81C212.01 207.01 208.91 215.27 213.38 212.17C217.86 209.08 223.02 198.59 226.63 199.62C230.24 200.65 250.19 211.31 263.61 222.49C277.02 233.67 285.97 244.34 285.45 242.27C284.93 240.21 283.21 232.64 267.56 216.47C251.91 200.31 239.47 193.71 239.47 193.71C239.47 193.71 241.76 193.6 244.17 194.06C246.58 194.52 249.56 194.74 248.76 193.6C247.96 192.45 248.07 191.08 248.87 190.04C249.68 189.01 260.91 185.8 263.44 187.18C265.96 188.55 267.1 192.68 278.69 198.07C290.27 203.46 302.65 203.12 304.6 202.54C306.55 201.97 308.27 201.74 304.14 199.56C300.01 197.38 295.66 195.43 293.13 190.62C290.61 185.8 284.65 185 285.11 178.69C285.57 172.38 288.2 164.7 292.67 155.64C297.15 146.58 303.34 136.15 301.62 136.49C300.98 136.62 298.87 137.73 295.99 139.64L302.23 132.15L326.75 153.33C326.87 155.2 326.95 157.08 327 158.96C327.05 160.47 327.07 161.98 327.07 163.5Z" fill="#E3BA00"/>
<path d="M17.93 182.56C22.28 184.86 27.15 186.79 32.37 188.39C27.23 188.24 22.19 186.74 17.93 182.56Z" fill="#E3BA00"/>
<path d="M228.92 184.55C228.8 184.92 228.7 185.22 228.62 185.46L228.92 184.55Z" fill="#E3BA00"/>
<path d="M192.34 103.91C192.48 103.91 192.6 103.92 192.69 103.93C193.72 104.04 193.26 104.85 190.62 113.56C187.98 122.28 189.25 129.61 189.25 129.61C189.25 129.61 207.94 138.1 215.73 148.65C223.53 159.2 235.57 170.55 246.35 174.68C251.56 176.68 255.51 177.31 258.35 177.31C261.38 177.31 263.13 176.59 263.78 176.05C265.04 175.02 268.48 166.77 278 155.53C283.98 148.46 291.1 142.89 295.99 139.64C298.87 137.73 300.98 136.62 301.62 136.49C301.65 136.48 301.67 136.48 301.7 136.48C303.15 136.48 297.08 146.72 292.67 155.64C288.2 164.7 285.57 172.38 285.11 178.69C284.65 185 290.61 185.8 293.13 190.62C295.66 195.43 300.01 197.38 304.14 199.56C308.27 201.74 306.55 201.97 304.6 202.54C304.05 202.7 302.65 202.85 300.67 202.85C295.68 202.85 286.98 201.93 278.69 198.07C267.1 192.68 265.96 188.55 263.44 187.18C263 186.94 262.31 186.84 261.46 186.84C257.35 186.84 249.54 189.19 248.87 190.04C248.07 191.08 247.96 192.45 248.76 193.6C249.19 194.21 248.53 194.43 247.44 194.43C246.51 194.43 245.28 194.27 244.17 194.06C242.54 193.75 240.96 193.7 240.12 193.7C239.71 193.7 239.47 193.71 239.47 193.71C239.47 193.71 251.91 200.31 267.56 216.47C283.21 232.64 284.93 240.21 285.45 242.27C285.49 242.45 285.47 242.53 285.38 242.53C284.42 242.53 275.88 232.72 263.61 222.49C250.19 211.31 230.24 200.65 226.63 199.62C226.46 199.57 226.29 199.55 226.12 199.55C222.54 199.55 217.66 209.22 213.38 212.17C212.68 212.65 212.17 212.86 211.79 212.86C209.77 212.86 211.82 206.82 210.8 205.81C209.6 204.61 205.13 203.57 205.13 203.57C205.13 203.57 189.99 205.47 177.26 207.53C164.54 209.59 164.88 207.7 158.86 210.45C152.84 213.21 152.15 213.72 152.15 213.72C152.15 213.72 151.29 216.99 144.07 220.26C139.17 222.48 137.59 223.66 136.71 223.66C136.29 223.66 136.03 223.39 135.64 222.84C134.44 221.12 136.33 215.96 136.84 213.03C137.36 210.11 137.36 206.5 137.36 206.5C137.36 206.5 122.51 204.61 118.84 202.66C115.17 200.71 117.01 200.36 114.48 200.36C112 200.36 100.52 204.03 94.03 204.03C93.93 204.03 93.83 204.03 93.73 204.03C87.31 203.92 85.13 202.43 83.64 200.48C82.15 198.53 81.92 194.4 83.18 192.8C84.44 191.19 85.82 191.19 86.73 188.55C87.65 185.92 87.88 183.62 87.88 183.62C87.88 183.62 83.06 178.35 78.71 175.82C74.35 173.3 68.73 172.73 68.73 172.73L69.65 176.74C69.65 176.74 65.18 172.84 64.03 171.81C62.88 170.78 61.28 169.29 61.28 169.29C61.28 169.29 41.56 159.89 32.38 149.11C27.74 143.65 25.15 140.08 23.82 137.52C22.52 135.02 22.41 133.5 22.75 132.14C23.44 129.39 31.24 125.26 56.23 120.21C70.24 117.39 76.4 116.72 82.01 116.72C86.41 116.72 90.48 117.13 97.74 117.23C114.25 117.46 138.33 119.29 154.62 121.82C170.9 124.34 173.65 124.34 173.65 124.34C173.65 124.34 174.45 114.48 181.1 109.32C187.16 104.63 190.93 103.91 192.34 103.91ZM192.34 100.91C190.37 100.91 186.04 101.69 179.26 106.95C174.03 111.01 171.94 117.38 171.14 121.11C168.64 120.83 163.86 120.21 155.08 118.86C139.4 116.42 115.3 114.48 97.78 114.23C94.07 114.18 91.2 114.04 88.68 113.93C86.28 113.82 84.21 113.72 82.01 113.72C76.46 113.72 70.36 114.3 55.63 117.27C25.69 123.32 20.74 127.81 19.83 131.41C19.25 133.73 19.66 136.04 21.15 138.9C22.66 141.81 25.42 145.55 30.09 151.05C38.93 161.43 56.54 170.31 59.56 171.79C60.09 172.29 61.17 173.28 62.02 174.04C63.17 175.07 67.49 178.84 67.67 179C68.23 179.49 68.93 179.74 69.64 179.74C70.17 179.74 70.7 179.6 71.18 179.31C72.15 178.73 72.7 177.67 72.63 176.57C74.1 176.98 75.74 177.58 77.19 178.42C79.81 179.95 82.92 182.85 84.67 184.62C84.52 185.4 84.27 186.45 83.88 187.56C83.58 188.43 83.36 188.6 82.69 189.13C82.18 189.53 81.48 190.09 80.8 190.95C78.49 193.89 79.15 199.56 81.24 202.3C83.72 205.55 87.32 206.92 93.66 207.03C93.77 207.03 93.89 207.03 94.02 207.03C98.38 207.03 104.35 205.61 109.15 204.48C111.23 203.99 113.81 203.38 114.47 203.36C114.5 203.36 114.52 203.36 114.55 203.36C115.13 203.91 115.96 204.53 117.42 205.31C120.57 206.98 129.46 208.42 134.25 209.11C134.18 210.17 134.07 211.4 133.87 212.51C133.75 213.2 133.52 214.1 133.29 215.05C132.37 218.72 131.51 222.18 133.17 224.56C133.57 225.14 134.64 226.67 136.7 226.67C137.91 226.67 138.86 226.18 140.59 225.29C141.67 224.73 143.16 223.97 145.3 223C151.08 220.38 153.47 217.57 154.44 215.89C155.22 215.49 156.85 214.68 160.11 213.19C163 211.87 163.92 211.83 166.65 211.69C168.93 211.58 172.06 211.42 177.74 210.5C188.92 208.69 202.13 206.99 204.96 206.62C206.12 206.92 207.33 207.32 208.09 207.65C208.07 208 208.03 208.4 208 208.72C207.8 210.87 207.6 213.1 209.02 214.66C209.73 215.44 210.72 215.87 211.79 215.87C212.83 215.87 213.88 215.48 215.09 214.64C217.28 213.13 219.37 210.45 221.4 207.85C222.77 206.09 225.02 203.21 226.13 202.61C229.84 203.96 248.65 213.92 261.7 224.8C268.81 230.73 274.63 236.5 278.49 240.31C283.06 244.84 283.76 245.53 285.39 245.53C286.35 245.53 287.24 245.1 287.82 244.35C288.17 243.9 288.71 242.93 288.37 241.54L288.35 241.44C287.69 238.83 285.7 230.88 269.73 214.38C262.01 206.41 255.08 200.73 249.95 196.97C250.56 196.68 251.15 196.21 251.54 195.45C252.09 194.39 252.02 193.14 251.37 192.07C253.36 191.27 258.6 189.83 261.48 189.83C261.83 189.83 262.04 189.85 262.14 189.87C262.49 190.11 262.98 190.62 263.53 191.2C265.52 193.29 268.85 196.78 277.45 200.78C287.26 205.35 296.97 205.84 300.69 205.84C301.93 205.84 304.21 205.78 305.48 205.41L305.85 205.3C307.1 204.95 309.42 204.29 309.68 201.87C309.96 199.22 307.32 197.82 305.57 196.9C305.22 196.72 304.87 196.53 304.52 196.35C300.86 194.44 297.69 192.79 295.81 189.21C294.56 186.83 292.77 185.31 291.18 183.97C288.94 182.08 287.96 181.14 288.12 178.9C288.54 173.19 290.91 166.02 295.38 156.96C296.74 154.21 298.23 151.38 299.68 148.65C304.79 138.98 305.71 137.09 304.46 135.02C303.88 134.06 302.85 133.48 301.72 133.48C301.5 133.48 301.28 133.5 301.06 133.55C299.44 133.88 296.17 135.94 294.35 137.14C291.12 139.29 282.83 145.19 275.73 153.59C269.1 161.42 265.28 167.94 263.23 171.45C262.71 172.34 262.13 173.34 261.83 173.75C261.5 173.9 260.46 174.3 258.37 174.3C256.28 174.3 252.68 173.88 247.45 171.87C236.34 167.61 224.73 155.74 218.17 146.86C211.28 137.53 196.86 129.95 192.07 127.61C191.88 125.2 191.8 120.1 193.52 114.42C193.95 112.99 194.33 111.77 194.65 110.73C196.35 105.21 196.7 104.06 195.65 102.46C195.32 101.96 194.54 101.09 193.04 100.93C192.82 100.92 192.58 100.91 192.34 100.91Z" fill="#444444"/>
</svg>
