<svg width="328" height="472" viewBox="0 0 328 472" fill="none" xmlns="http://www.w3.org/2000/svg">
<path d="M326.08 183.15L326.85 183.16C326.82 184.28 326.79 185.4 326.73 186.51C324.13 243.65 288.92 282.07 266.6 310.89C252.37 329.26 230.36 356.54 213.31 381.82C209.9 386.87 206.7 391.84 203.8 396.64C202.42 398.91 201.11 401.14 199.88 403.33C195.91 410.38 192.76 416.95 190.77 422.73C180.35 453.06 178.45 467.28 164.23 471.07C150.02 474.86 146.23 442.64 133.9 414.2C121.58 385.77 84.62 339.33 44.81 290.99C5 242.65 0.709991 181.01 0.709991 181.01H1.19C0.570002 175.26 0.26001 169.42 0.26001 163.5C0.26001 73.2 73.46 0 163.76 0C240.3 0 304.56 52.6 322.36 123.62C325.56 136.38 327.26 149.74 327.26 163.5C327.26 169.74 326.91 175.88 326.22 181.92C326.18 182.33 326.13 182.74 326.08 183.15Z" fill="#FFCC00"/>
<path d="M18.12 182.56C22.47 184.86 27.34 186.79 32.56 188.39C27.42 188.24 22.38 186.74 18.12 182.56Z" fill="#E3BA00"/>
<path d="M326.73 186.51C324.13 243.65 288.92 282.07 266.6 310.89C252.37 329.26 230.36 356.54 213.31 381.82C209.9 386.87 206.7 391.84 203.8 396.64L83.01 266.67L83.1 264.14C88.89 269.47 97.35 272.02 101.18 272.78C105.28 273.6 111.03 256.36 109.8 245.68C108.57 235 106.52 232.13 102.41 223.51C98.3 214.88 99.53 205.44 99.53 205.44C99.53 205.44 117.09 225.46 144.81 234.08C172.53 242.7 213.69 234.18 213.69 234.18C213.69 234.18 223.55 240.75 237.92 242.81C252.29 244.86 265.84 235 276.11 235C286.37 235 290.07 239.52 292.94 237.88C295.82 236.24 287.61 220.63 275.7 217.35C264.01 214.12 241.62 219.21 240.81 219.39C241.52 219.07 264.3 208.61 270.77 201.74C277.34 194.76 277.34 182.03 277.34 182.03C277.34 182.03 283.09 182.44 291.3 180.39C299.51 178.34 302.8 179.16 302.8 176.28C302.8 173.41 288.43 156.98 279.8 150L326.73 186.51Z" fill="#E3BA00"/>
<path d="M169.67 95.26C183.85 95.26 191.93 100.31 191.93 100.31C191.93 100.31 188.64 103.19 177.56 106.89C166.47 110.58 141.01 116.74 141.01 116.74C141.01 116.74 141.01 116.74 157.02 115.1C160.8 114.71 165.04 114.51 169.56 114.51C184.2 114.51 201.82 116.65 216.57 121.67C235.87 128.24 258.04 147.54 258.04 147.54C258.04 147.54 262.22 146.1 267.42 146.1C271.43 146.1 276.04 146.96 279.8 150C288.43 156.98 302.8 173.41 302.8 176.28C302.8 179.16 299.51 178.34 291.3 180.39C285.44 181.85 280.83 182.06 278.67 182.06C277.81 182.06 277.34 182.03 277.34 182.03C277.34 182.03 277.34 194.76 270.77 201.74C264.3 208.61 241.52 219.07 240.81 219.39C241.43 219.25 254.51 216.28 265.89 216.28C269.48 216.28 272.9 216.58 275.7 217.35C287.61 220.63 295.82 236.24 292.94 237.88C292.5 238.13 292.04 238.24 291.54 238.24C288.78 238.24 284.8 235 276.11 235C266.81 235 254.81 243.09 241.96 243.09C240.62 243.09 239.28 243 237.92 242.81C223.55 240.75 213.69 234.18 213.69 234.18C213.69 234.18 195.54 237.94 175.23 237.94C164.95 237.94 154.13 236.98 144.81 234.08C117.09 225.46 99.53 205.44 99.53 205.44C99.53 205.44 98.3 214.88 102.41 223.51C106.52 232.13 108.57 235 109.8 245.68C111 256.11 105.54 272.81 101.47 272.81C101.37 272.81 101.28 272.8 101.18 272.78C97.35 272.02 88.89 269.47 83.1 264.14C82.68 263.75 82.27 263.35 81.88 262.93C76.13 256.77 75.31 249.38 70.79 241.98C66.27 234.59 60.52 232.13 65.86 212.42C71.2 192.71 85.78 184.08 85.78 184.08C85.78 184.08 86.19 181.21 85.37 178.13C84.55 175.05 80.65 175.67 72.23 172.59C63.81 169.51 46.77 163.14 40.2 158.01C33.63 152.88 27.67 151.23 24.8 150.21C21.92 149.18 22.95 147.95 23.36 145.28C23.77 142.61 32.19 125.36 52.11 124.13C53.9 124.02 55.61 123.97 57.25 123.97C73.88 123.97 83.21 129.19 90.5 130.5C92.43 130.85 93.99 130.99 95.27 130.99C99.29 130.99 100.65 129.59 102.82 128.65C105.69 127.42 115.96 123.72 118.42 120.03C120.89 116.33 134.44 101.14 156.61 96.62C161.4 95.64 165.76 95.26 169.67 95.26ZM169.67 92.26C165.23 92.26 160.63 92.74 156.01 93.68C133.7 98.23 119.23 113.41 115.92 118.36C114.32 120.76 106.03 124.1 103.3 125.2C102.62 125.47 102.05 125.7 101.63 125.88C100.99 126.16 100.42 126.46 99.91 126.73C98.54 127.46 97.55 127.98 95.26 127.98C94.09 127.98 92.66 127.83 91.02 127.54C89 127.18 86.72 126.46 84.07 125.62C77.84 123.65 69.31 120.96 57.25 120.96C55.51 120.96 53.72 121.02 51.92 121.13C40.43 121.84 32.71 127.47 28.26 132.07C23.47 137.02 20.73 142.6 20.39 144.82C20.32 145.24 20.24 145.65 20.15 146.04C19.77 147.75 18.98 151.31 23.79 153.03C24.13 153.15 24.51 153.28 24.93 153.42C27.92 154.43 32.93 156.13 38.36 160.37C44.88 165.46 60.23 171.39 71.21 175.4C74.39 176.56 76.9 177.21 78.92 177.73C80.32 178.09 82.06 178.54 82.48 178.87C82.48 178.88 82.49 178.89 82.49 178.9C82.84 180.21 82.91 181.49 82.9 182.4C78.95 185.17 67.66 194.37 62.98 211.64C58.17 229.4 61.99 234.7 66.03 240.31C66.77 241.34 67.54 242.4 68.24 243.55C69.94 246.34 71.12 249.23 72.27 252.02C74.06 256.39 75.9 260.91 79.7 264.98C80.1 265.41 80.55 265.85 81.07 266.34C88.33 273.02 98.62 275.33 100.61 275.72C100.89 275.78 101.19 275.81 101.48 275.81C103.02 275.81 104.47 275.06 105.79 273.57C110.29 268.52 113.82 254.28 112.79 245.34C111.67 235.64 109.81 231.82 106.72 225.5C106.23 224.49 105.7 223.41 105.13 222.22C103.59 218.98 102.88 215.58 102.58 212.71C109.89 219.44 124.39 230.86 143.93 236.94C152.45 239.59 162.98 240.93 175.24 240.93C192.9 240.93 208.72 238.18 213.12 237.34C216.15 239.14 225.22 244.01 237.5 245.77C238.95 245.98 240.45 246.08 241.96 246.08C249.42 246.08 256.51 243.58 262.76 241.38C267.69 239.64 272.36 237.99 276.12 237.99C281.14 237.99 284.33 239.15 286.9 240.09C288.58 240.7 290.03 241.23 291.55 241.23C292.59 241.23 293.56 240.98 294.44 240.48C295.18 240.06 296.87 238.73 296.47 235.56C295.76 229.86 287.64 217.52 276.51 214.46C273.68 213.68 270.11 213.28 265.9 213.28C263.59 213.28 261.22 213.4 258.89 213.59C264.52 210.42 270.09 206.85 272.97 203.8C278.26 198.18 279.76 189.57 280.19 185.04C282.83 184.94 287 184.56 292.04 183.31C294.58 182.67 296.64 182.33 298.29 182.05C301.81 181.45 305.81 180.78 305.81 176.29C305.81 175.22 305.81 173.01 296.8 162.72C291.59 156.77 285.81 151.01 281.69 147.68C277.95 144.65 273.15 143.11 267.42 143.11C263.78 143.11 260.61 143.75 258.76 144.22C253.73 140 234.75 124.7 217.54 118.84C204.71 114.47 188.53 111.86 172.68 111.55C174.85 110.92 176.83 110.31 178.51 109.75C189.84 105.97 193.53 102.92 193.91 102.58C194.62 101.95 195 101.03 194.92 100.08C194.84 99.13 194.32 98.28 193.52 97.78C193.16 97.54 184.54 92.26 169.67 92.26Z" fill="#444444"/>
</svg>
