<svg xmlns="http://www.w3.org/2000/svg" width="38" height="38" viewBox="0 0 38 38">
    <g fill="none" fill-rule="evenodd">
        <g fill="#FFF">
            <g>
                <g>
                    <g>
                        <path d="M11.89 8.433c-.967-.751-2.364-.683-3.252.205l-.205.232c-.751.966-.683 2.363.205 3.251L15.515 19l-6.877 6.879c-.962.962-.962 2.521 0 3.483.962.962 2.521.962 3.483 0L19 22.485l6.879 6.877.232.205c.966.751 2.363.683 3.25-.205l.206-.232c.751-.966.683-2.363-.205-3.251L22.485 19l6.877-6.879c.962-.962.962-2.521 0-3.483-.962-.962-2.521-.962-3.483 0L19 15.515l-6.879-6.877-.232-.205z" transform="translate(-1544 -4240) translate(-1 4099) translate(1524 121) translate(21 20)"/>
                    </g>
                </g>
            </g>
        </g>
    </g>
</svg>
